<svg width="50" height="50" viewBox="0 0 50 50" fill="none" xmlns="http://www.w3.org/2000/svg">
<g clip-path="url(#clip0_654_1242)">
<path d="M49.6139 44.435L48.9006 43.7216C48.7632 43.5842 48.577 43.5071 48.3827 43.507C48.1885 43.507 48.0022 43.5842 47.8648 43.7215C47.7968 43.7895 47.7428 43.8702 47.706 43.9591C47.6692 44.0479 47.6502 44.1432 47.6502 44.2393C47.6502 44.3355 47.6692 44.4308 47.706 44.5196C47.7428 44.6085 47.7967 44.6892 47.8647 44.7572L48.4744 45.367L45.3672 48.4743L40.0846 43.1918L43.1919 40.0845L45.6563 42.5489C45.7937 42.6863 45.98 42.7635 46.1743 42.7635C46.3685 42.7635 46.5548 42.6863 46.6922 42.5489C46.8295 42.4116 46.9067 42.2253 46.9067 42.031C46.9067 41.8367 46.8295 41.6504 46.6922 41.5131L43.7111 38.5321L43.7099 38.5307L41.6383 36.4591L41.6365 36.4575L39.8083 34.6293C39.5593 34.3802 39.2282 34.243 38.876 34.243C38.5237 34.243 38.1927 34.3802 37.9438 34.6291L37.8401 34.7328L35.2193 32.1113C37.0926 29.7709 38.4455 26.9974 39.1021 23.967H44.2628C44.6674 23.967 44.9952 23.6392 44.9952 23.2346C44.9952 22.83 44.6674 22.5021 44.2628 22.5021H39.3618C39.4264 22.0363 39.4746 21.5654 39.506 21.0899H47.7539C48.1585 21.0899 48.4863 20.7621 48.4863 20.3575C48.4863 19.9529 48.1585 19.6251 47.7539 19.6251H39.5492C39.5458 19.1538 39.5261 18.6827 39.4901 18.2128H44.2629C44.6675 18.2128 44.9953 17.885 44.9953 17.4804C44.9953 17.0758 44.6675 16.7479 44.2629 16.7479H39.3228C38.8111 13.3809 37.4427 10.2313 35.2893 7.51074C35.1687 7.35848 34.9925 7.26034 34.7996 7.23789C34.6067 7.21544 34.4127 7.27052 34.2603 7.39102C34.1081 7.51161 34.0099 7.68774 33.9875 7.88068C33.965 8.07362 34.0201 8.26759 34.1406 8.41992C36.7217 11.6806 38.0859 15.6072 38.0859 19.7754C38.0859 29.8719 29.8719 38.0859 19.7754 38.0859C9.67891 38.0859 1.46484 29.8719 1.46484 19.7754C1.46484 9.67891 9.67891 1.46484 19.7754 1.46484C24.3396 1.46484 28.712 3.1541 32.0868 6.22139C32.2309 6.34976 32.4199 6.41607 32.6126 6.4059C32.8053 6.39573 32.9862 6.30992 33.116 6.1671C33.2458 6.02428 33.314 5.836 33.3058 5.64319C33.2975 5.45038 33.2135 5.26861 33.072 5.1374C29.4271 1.82451 24.7049 0 19.7754 0C8.87119 0 0 8.87119 0 19.7754C0 29.4025 6.91543 37.4435 16.0394 39.1952V44.1365C16.0394 44.5411 16.3672 44.8689 16.7718 44.8689C17.1764 44.8689 17.5042 44.5411 17.5042 44.1365V39.4196C17.9703 39.4731 18.4412 39.5106 18.9165 39.5311V47.5809C18.9165 47.9855 19.2443 48.3133 19.6489 48.3133C20.0535 48.3133 20.3813 47.9855 20.3813 47.5809V39.5406C20.8563 39.5263 21.3274 39.496 21.7937 39.4485V44.1365C21.7937 44.5411 22.1215 44.8689 22.5261 44.8689C22.9307 44.8689 23.2585 44.5411 23.2585 44.1365V39.2436C26.5654 38.6535 29.5896 37.2379 32.1114 35.2193L34.7329 37.8402L34.6294 37.9438C34.3803 38.1928 34.2431 38.5238 34.2431 38.8761C34.2431 39.2283 34.3803 39.5594 34.6292 39.8083L36.4581 41.6371L36.4592 41.6383L38.5308 43.7099L38.5321 43.7111L44.4348 49.6137C44.6838 49.8629 45.0148 50 45.3671 50C45.7193 50 46.0503 49.8629 46.2994 49.6139L49.6139 46.2994C49.8629 46.0503 50 45.7193 50 45.3671C50 45.0148 49.8629 44.6838 49.6139 44.435ZM34.2599 33.2234L36.8042 35.7684L35.7685 36.8041L33.2235 34.2598C33.5816 33.9272 33.9273 33.5815 34.2599 33.2234ZM39.0487 42.1561L38.0129 41.1203L41.1202 38.013L42.156 39.0488L39.0487 42.1561ZM38.8761 35.7687L40.0845 36.9771L36.9771 40.0844L35.7687 38.876L38.8761 35.7687Z" fill="url(#paint0_linear_654_1242)"/>
<path d="M9.57598 33.1826C12.5095 35.3875 16.0335 36.5765 19.7756 36.6208C29.0644 36.6208 36.6213 29.0639 36.6213 19.7751C36.6213 10.4864 29.0644 2.92944 19.7756 2.92944C15.2929 2.92944 11.0766 4.68403 7.90362 7.86997C4.74405 11.0423 2.97774 15.2676 2.92989 19.7673C2.88595 23.9098 4.39112 27.8915 7.16807 30.9788C7.29798 31.1232 7.47993 31.2101 7.67392 31.2204C7.8679 31.2307 8.05802 31.1634 8.20245 31.0335C8.34688 30.9036 8.43379 30.7217 8.44407 30.5277C8.45434 30.3337 8.38714 30.1436 8.25723 29.9992C5.72638 27.1855 4.3546 23.5573 4.39473 19.783C4.43839 15.6674 6.05313 11.8038 8.94151 8.90376C11.8376 5.99575 15.6852 4.39429 19.7756 4.39429C28.2566 4.39429 35.1565 11.2941 35.1565 19.7751C35.1565 28.2562 28.2566 35.156 19.7843 35.1561C16.3645 35.1155 13.1389 34.0281 10.4561 32.0117C10.3792 31.9539 10.2917 31.9118 10.1985 31.8878C10.1054 31.8638 10.0084 31.8584 9.91319 31.8719C9.81796 31.8854 9.72633 31.9176 9.64352 31.9665C9.56071 32.0154 9.48835 32.0802 9.43057 32.1571C9.37276 32.2339 9.33065 32.3215 9.30667 32.4146C9.28268 32.5078 9.27729 32.6047 9.29079 32.7C9.30429 32.7952 9.33643 32.8868 9.38537 32.9696C9.4343 33.0524 9.49907 33.1248 9.57598 33.1826Z" fill="url(#paint1_linear_654_1242)"/>
<path d="M22.5589 6.68921H17.4808C16.8615 6.68921 16.3577 7.19302 16.3577 7.81226V10.4001H11.6214C11.0021 10.4001 10.4983 10.904 10.4983 11.5232V19.3845H9.51807C9.11348 19.3845 8.78564 19.7124 8.78564 20.1169C8.78564 20.5215 9.11348 20.8494 9.51807 20.8494H30.5216C30.9262 20.8494 31.254 20.5215 31.254 20.1169C31.254 19.7124 30.9262 19.3845 30.5216 19.3845H29.5413V15.2341C29.5413 14.6149 29.0375 14.1111 28.4183 14.1111H23.6819V7.81226C23.6819 7.19302 23.1781 6.68921 22.5589 6.68921ZM11.9632 11.865H16.3577V19.3845H11.9632V11.865ZM17.8226 8.15405H22.2171V19.3845H17.8226V8.15405ZM28.0765 15.5759V19.3845H23.6819V15.5759H28.0765ZM28.2229 27.0557H24.7748L23.2084 23.0515C23.0977 22.7686 22.8264 22.5855 22.5198 22.5859C22.3714 22.5872 22.2268 22.6336 22.1054 22.719C21.9839 22.8043 21.8912 22.9245 21.8396 23.0637L19.6989 28.8361L18.2028 24.5956C18.2625 24.4887 18.2944 24.3686 18.2957 24.2462C18.297 24.1238 18.2676 24.0031 18.2101 23.895C18.1527 23.7869 18.0691 23.6949 17.967 23.6274C17.8649 23.56 17.7475 23.5192 17.6256 23.5088C17.5036 23.4984 17.381 23.5187 17.2689 23.5679C17.1569 23.6171 17.0589 23.6936 16.984 23.7904C16.9091 23.8872 16.8597 24.0012 16.8402 24.122C16.8207 24.2429 16.8319 24.3667 16.8726 24.4821L15.4358 27.0556H11.9968C11.5922 27.0556 11.2644 27.3834 11.2644 27.788C11.2644 28.1926 11.5922 28.5205 11.9968 28.5205H15.8657C15.9961 28.5204 16.1241 28.4856 16.2365 28.4197C16.3489 28.3537 16.4417 28.2589 16.5053 28.1451L17.361 26.6124L18.991 31.2325C19.0411 31.3745 19.1337 31.4976 19.2563 31.585C19.3788 31.6725 19.5253 31.72 19.6759 31.7212H19.6818C19.8314 31.7212 19.9773 31.6754 20.1001 31.59C20.2228 31.5046 20.3165 31.3836 20.3685 31.2434L22.5445 25.3754L23.5927 28.0549C23.6463 28.1921 23.7401 28.31 23.8618 28.393C23.9835 28.4761 24.1274 28.5205 24.2747 28.5206H28.2229C28.6275 28.5206 28.9554 28.1927 28.9554 27.7881C28.9554 27.3835 28.6275 27.0557 28.2229 27.0557Z" fill="url(#paint2_linear_654_1242)"/>
</g>
<defs>
<linearGradient id="paint0_linear_654_1242" x1="-3.39506" y1="-11.7284" x2="65.1235" y2="61.7284" gradientUnits="userSpaceOnUse">
<stop stop-color="#EB235F"/>
<stop offset="1" stop-color="#E8950D"/>
</linearGradient>
<linearGradient id="paint1_linear_654_1242" x1="0.641206" y1="-4.97348" x2="46.8108" y2="44.525" gradientUnits="userSpaceOnUse">
<stop stop-color="#EB235F"/>
<stop offset="1" stop-color="#E8950D"/>
</linearGradient>
<linearGradient id="paint2_linear_654_1242" x1="7.26002" y1="0.817497" x2="41.6209" y2="33.8821" gradientUnits="userSpaceOnUse">
<stop stop-color="#EB235F"/>
<stop offset="1" stop-color="#E8950D"/>
</linearGradient>
<clipPath id="clip0_654_1242">
<rect width="50" height="50" fill="white"/>
</clipPath>
</defs>
</svg>
