<svg width="50" height="50" viewBox="0 0 50 50" fill="none" xmlns="http://www.w3.org/2000/svg">
<g clip-path="url(#clip0_654_1236)">
<path d="M9.0376 18.0752C14.0209 18.0752 18.0752 14.0209 18.0752 9.0376C18.0752 4.0543 14.0209 0 9.0376 0C4.0543 0 0 4.0543 0 9.0376C0 14.0209 4.0543 18.0752 9.0376 18.0752ZM9.0376 1.95312C12.9439 1.95312 16.1221 5.13125 16.1221 9.0376C16.1221 12.9439 12.9439 16.1221 9.0376 16.1221C5.13125 16.1221 1.95312 12.9439 1.95312 9.0376C1.95312 5.13125 5.13125 1.95312 9.0376 1.95312Z" fill="url(#paint0_linear_654_1236)"/>
<path d="M9.81455 11.1842C9.9051 11.2747 10.0126 11.3464 10.1309 11.3953C10.2492 11.4441 10.376 11.4692 10.504 11.469C10.6325 11.4692 10.7598 11.4439 10.8786 11.3947C10.9973 11.3454 11.1051 11.2731 11.1957 11.1819C11.5764 10.7999 11.5754 10.1815 11.1935 9.80078L10.0208 8.63203V4.29688C10.0208 3.75762 9.5835 3.32031 9.04424 3.32031C8.50498 3.32031 8.06768 3.75762 8.06768 4.29688V9.0376C8.06768 9.29717 8.17109 9.54609 8.35478 9.7293L9.81455 11.1842ZM49.0234 32.4219H43.013C42.1828 31.2407 40.9398 30.4138 39.5295 30.1047L35.2361 29.1659C36.9931 27.981 38.1509 25.9724 38.1509 23.6983V19.9624C38.1509 16.3284 35.1944 13.372 31.5604 13.372C27.9265 13.372 24.97 16.3284 24.97 19.9624V23.6983C24.97 25.9694 26.1248 27.976 27.878 29.1615L23.5874 30.1028C23.405 30.143 23.2246 30.192 23.0469 30.2495V22.168C23.0469 21.6287 22.6096 21.1914 22.0703 21.1914H15.4297C14.8904 21.1914 14.4531 21.6287 14.4531 22.168C14.4531 22.7072 14.8904 23.1445 15.4297 23.1445H21.0938V36.8164H14.4531V31.9336C14.4531 30.3182 13.1389 29.0039 11.5234 29.0039C9.90801 29.0039 8.59375 30.3182 8.59375 31.9336V36.8164H1.95312V23.1445H7.61719C8.15645 23.1445 8.59375 22.7072 8.59375 22.168C8.59375 21.6287 8.15645 21.1914 7.61719 21.1914H0.976562C0.437305 21.1914 0 21.6287 0 22.168V37.793C0 38.3322 0.437305 38.7695 0.976562 38.7695H8.59375V40.625H8.49609C6.82676 40.625 5.46875 41.983 5.46875 43.6523V44.1406H0.976562C0.437305 44.1406 0 44.5779 0 45.1172V49.0234C0 49.5627 0.437305 50 0.976562 50H49.0234C49.5627 50 50 49.5627 50 49.0234V33.3984C50 32.8592 49.5627 32.4219 49.0234 32.4219ZM43.0839 44.1406H37.5V42.1875H48.0469V44.1406H43.0839ZM48.0469 40.2344H37.5V38.2812H48.0469V40.2344ZM48.0469 36.3281H37.5V34.375H42.4682C42.4711 34.375 42.474 34.3756 42.4769 34.3756C42.4799 34.3756 42.483 34.375 42.486 34.375H48.0469V36.3281ZM26.923 19.9625C26.923 17.4055 29.0034 15.3252 31.5604 15.3252C33.9952 15.3252 35.9978 17.2113 36.1836 19.5993L33.9135 18.2656C33.7143 18.1486 33.4802 18.106 33.2526 18.1453C33.025 18.1846 32.8187 18.3033 32.6703 18.4804C32.1836 19.0625 31.575 19.5306 30.8874 19.8515C30.1999 20.1724 29.4502 20.3383 28.6914 20.3375H26.9231V19.9625H26.923ZM26.923 22.2905H28.6914C30.5298 22.2905 32.2754 21.5895 33.5942 20.3433L36.1978 21.8729V23.6984C36.1978 26.2555 34.1174 28.3357 31.5604 28.3357C29.0035 28.3357 26.9231 26.2554 26.9231 23.6984V22.2905H26.923ZM33.0902 30.1077L31.5458 34.238L29.9985 30.1003C30.5097 30.2254 31.0341 30.2887 31.5604 30.2889C32.0871 30.2889 32.5989 30.225 33.0902 30.1077ZM22.0703 38.7695C22.6096 38.7695 23.0469 38.3322 23.0469 37.793V32.361C23.3493 32.2016 23.6719 32.0837 24.0059 32.0106L28.2773 31.0735L30.6312 37.3682C30.7009 37.5545 30.8258 37.715 30.9893 37.8284C31.1527 37.9418 31.3469 38.0025 31.5458 38.0025C31.7448 38.0025 31.9389 37.9417 32.1024 37.8283C32.2658 37.715 32.3908 37.5544 32.4604 37.3681L34.8144 31.073L39.1123 32.0128C39.4857 32.0948 39.8447 32.2327 40.177 32.4218H36.5234C35.9842 32.4218 35.5469 32.8591 35.5469 33.3983V44.1405H21.0136V38.7694H22.0703V38.7695ZM19.0604 38.7695V44.1406H17.5781V43.6523C17.5781 41.983 16.2201 40.625 14.5508 40.625H14.4531V38.7695H19.0604ZM10.5469 31.9336C10.5469 31.3951 10.985 30.957 11.5234 30.957C12.0619 30.957 12.5 31.3951 12.5 31.9336V40.625H10.5469V31.9336ZM7.42188 43.6523C7.42188 43.0601 7.90381 42.5781 8.49609 42.5781H14.5508C15.1431 42.5781 15.625 43.0601 15.625 43.6523V44.1406H7.42188V43.6523ZM48.0469 48.0469H1.95312V46.0938H48.0469V48.0469Z" fill="url(#paint1_linear_654_1236)"/>
<path d="M10.833 21.4775C10.6514 21.6592 10.5469 21.9111 10.5469 22.168C10.5469 22.4248 10.6513 22.6768 10.833 22.8583C11.0146 23.0399 11.2666 23.1445 11.5234 23.1445C11.7803 23.1445 12.0322 23.04 12.2138 22.8583C12.3955 22.6768 12.5 22.4248 12.5 22.168C12.5 21.9111 12.3955 21.6592 12.2138 21.4775C12.0322 21.2959 11.7803 21.1914 11.5234 21.1914C11.2666 21.1914 11.0146 21.2958 10.833 21.4775Z" fill="url(#paint2_linear_654_1236)"/>
</g>
<defs>
<linearGradient id="paint0_linear_654_1236" x1="-1.22733" y1="-4.23986" x2="23.5424" y2="22.3151" gradientUnits="userSpaceOnUse">
<stop stop-color="#EB235F"/>
<stop offset="1" stop-color="#E8950D"/>
</linearGradient>
<linearGradient id="paint1_linear_654_1236" x1="-3.39506" y1="-7.62925" x2="60.1199" y2="65.3068" gradientUnits="userSpaceOnUse">
<stop stop-color="#EB235F"/>
<stop offset="1" stop-color="#E8950D"/>
</linearGradient>
<linearGradient id="paint2_linear_654_1236" x1="10.4143" y1="20.7333" x2="13.0908" y2="23.6027" gradientUnits="userSpaceOnUse">
<stop stop-color="#EB235F"/>
<stop offset="1" stop-color="#E8950D"/>
</linearGradient>
<clipPath id="clip0_654_1236">
<rect width="50" height="50" fill="white"/>
</clipPath>
</defs>
</svg>
