<svg width="50" height="50" viewBox="0 0 50 50" fill="none" xmlns="http://www.w3.org/2000/svg">
<g clip-path="url(#clip0_679_1198)">
<path d="M47.2656 0H2.73438C2.00917 0 1.31367 0.288085 0.80088 0.80088C0.288085 1.31367 0 2.00917 0 2.73438L0 34.7656C0 35.4908 0.288085 36.1863 0.80088 36.6991C1.31367 37.2119 2.00917 37.5 2.73438 37.5H17.5781V47.6562H11.3281C11.0173 47.6562 10.7193 47.7797 10.4995 47.9995C10.2797 48.2193 10.1562 48.5173 10.1562 48.8281C10.1562 49.1389 10.2797 49.437 10.4995 49.6568C10.7193 49.8765 11.0173 50 11.3281 50H38.6719C38.9827 50 39.2807 49.8765 39.5005 49.6568C39.7203 49.437 39.8438 49.1389 39.8438 48.8281C39.8438 48.5173 39.7203 48.2193 39.5005 47.9995C39.2807 47.7797 38.9827 47.6562 38.6719 47.6562H32.4219V37.5H47.2656C47.9908 37.5 48.6863 37.2119 49.1991 36.6991C49.7119 36.1863 50 35.4908 50 34.7656V2.73438C50 2.00917 49.7119 1.31367 49.1991 0.80088C48.6863 0.288085 47.9908 0 47.2656 0ZM2.73438 2.34375H47.2656C47.3692 2.34375 47.4686 2.38491 47.5418 2.45816C47.6151 2.53142 47.6562 2.63077 47.6562 2.73438V28.5156H2.34375V2.73438C2.34375 2.63077 2.38491 2.53142 2.45816 2.45816C2.53142 2.38491 2.63077 2.34375 2.73438 2.34375ZM30.0781 47.6562H19.9219V37.5H30.0781V47.6562ZM47.2656 35.1562H2.73438C2.63077 35.1562 2.53142 35.1151 2.45816 35.0418C2.38491 34.9686 2.34375 34.8692 2.34375 34.7656V30.8594H47.6562V34.7656C47.6562 34.8692 47.6151 34.9686 47.5418 35.0418C47.4686 35.1151 47.3692 35.1562 47.2656 35.1562Z" fill="url(#paint0_linear_679_1198)"/>
<g clip-path="url(#clip1_679_1198)">
<path d="M26.06 12.11L27.475 13.525C28.1251 14.175 28.6408 14.9467 28.9926 15.796C29.3444 16.6454 29.5255 17.5557 29.5255 18.475C29.5255 19.3943 29.3444 20.3046 28.9926 21.1539C28.6408 22.0033 28.1251 22.775 27.475 23.425L27.121 23.778C25.8082 25.0908 24.0276 25.8283 22.171 25.8283C20.3144 25.8283 18.5338 25.0908 17.221 23.778C15.9082 22.4652 15.1707 20.6846 15.1707 18.828C15.1707 16.9714 15.9082 15.1908 17.221 13.878L18.636 15.293C18.1684 15.7565 17.7969 16.3079 17.5429 16.9154C17.289 17.5229 17.1575 18.1746 17.156 18.833C17.1546 19.4915 17.2832 20.1437 17.5345 20.7523C17.7859 21.3609 18.1549 21.9139 18.6205 22.3795C19.0861 22.8451 19.6391 23.2141 20.2477 23.4655C20.8563 23.7168 21.5085 23.8454 22.167 23.844C22.8254 23.8425 23.4771 23.711 24.0846 23.4571C24.6921 23.2031 25.2435 22.8316 25.707 22.364L26.061 22.01C26.9984 21.0724 27.5249 19.8008 27.5249 18.475C27.5249 17.1492 26.9984 15.8776 26.061 14.94L24.646 13.525L26.061 12.111L26.06 12.11ZM32.778 18.121L31.364 16.707C31.8316 16.2434 32.2031 15.6921 32.4571 15.0846C32.7111 14.4771 32.8425 13.8254 32.844 13.167C32.8454 12.5085 32.7168 11.8563 32.4655 11.2476C32.2142 10.639 31.8451 10.0861 31.3795 9.62047C30.9139 9.15487 30.361 8.78583 29.7524 8.53451C29.1437 8.2832 28.4915 8.15457 27.833 8.15602C27.1746 8.15746 26.5229 8.28894 25.9154 8.54292C25.3079 8.79689 24.7566 9.16836 24.293 9.63599L23.939 9.98999C23.0017 10.9276 22.4751 12.1992 22.4751 13.525C22.4751 14.8508 23.0017 16.1223 23.939 17.06L25.354 18.475L23.939 19.889L22.525 18.475C21.8749 17.825 21.3592 17.0533 21.0074 16.2039C20.6556 15.3546 20.4745 14.4443 20.4745 13.525C20.4745 12.6057 20.6556 11.6954 21.0074 10.846C21.3592 9.99671 21.8749 9.22501 22.525 8.57499L22.879 8.22199C24.1918 6.90917 25.9724 6.17163 27.829 6.17163C29.6856 6.17163 31.4662 6.90917 32.779 8.22199C34.0918 9.53481 34.8294 11.3154 34.8294 13.172C34.8294 15.0286 34.0918 16.8092 32.779 18.122L32.778 18.121Z" fill="url(#paint1_linear_679_1198)"/>
</g>
</g>
<defs>
<linearGradient id="paint0_linear_679_1198" x1="-3.39506" y1="-11.7284" x2="65.1235" y2="61.7284" gradientUnits="userSpaceOnUse">
<stop stop-color="#EB235F"/>
<stop offset="1" stop-color="#E8950D"/>
</linearGradient>
<linearGradient id="paint1_linear_679_1198" x1="13.8358" y1="1.5608" x2="40.7726" y2="30.4419" gradientUnits="userSpaceOnUse">
<stop stop-color="#EB235F"/>
<stop offset="1" stop-color="#E8950D"/>
</linearGradient>
<clipPath id="clip0_679_1198">
<rect width="50" height="50" fill="white"/>
</clipPath>
<clipPath id="clip1_679_1198">
<rect width="24" height="24" fill="white" transform="translate(13 4)"/>
</clipPath>
</defs>
</svg>
