<svg width="56" height="60" viewBox="0 0 56 60" fill="none" xmlns="http://www.w3.org/2000/svg">
<path fill-rule="evenodd" clip-rule="evenodd" d="M32.4463 39.9161L32.4148 39.9455L32.3844 39.9759C31.3832 40.977 30.0254 41.5 28.7717 41.5C27.4463 41.5 26.1708 40.9877 25.159 39.9759C23.5622 38.3791 21.2775 37.4213 18.9654 37.4213C16.1123 37.4213 13.8287 35.0879 13.8287 32.2846C13.8287 29.9989 12.9761 27.793 11.2741 26.091C10.2623 25.0792 9.75 23.8037 9.75 22.4783C9.75 21.0814 10.2513 19.8884 11.2741 18.8656C12.8709 17.2688 13.8287 14.9842 13.8287 12.672C13.8287 9.81894 16.1621 7.53532 18.9654 7.53532C21.2511 7.53532 23.457 6.68268 25.159 4.98068C27.1333 3.00644 30.4101 3.00644 32.3844 4.98068C33.9812 6.57752 36.2659 7.53532 38.578 7.53532C41.4311 7.53532 43.7147 9.86875 43.7147 12.672C43.7147 14.9577 44.5673 17.1636 46.2693 18.8656C48.2436 20.8399 48.2436 24.1167 46.2693 26.091C44.6725 27.6878 43.7147 29.9725 43.7147 32.2846C43.7147 35.1748 41.4309 37.4213 38.6647 37.4213C36.3647 37.4213 34.1977 38.2815 32.4463 39.9161ZM38.6647 39.9213C42.8302 39.9213 46.2147 36.5368 46.2147 32.2846C46.2147 30.6357 46.9089 28.9869 48.0371 27.8587C50.9876 24.9082 50.9876 20.0484 48.0371 17.0979C46.8222 15.8829 46.2147 14.3209 46.2147 12.672C46.2147 8.50656 42.8302 5.03532 38.578 5.03532C36.9291 5.03532 35.2803 4.34107 34.1521 3.21292C31.2016 0.262361 26.3418 0.262361 23.3913 3.21292C22.1763 4.42785 20.6143 5.03532 18.9654 5.03532C14.7999 5.03532 11.3287 8.41978 11.3287 12.672C11.3287 14.3209 10.6345 15.9697 9.50631 17.0979C8.03103 18.5732 7.25 20.3956 7.25 22.4783C7.25 24.4743 8.03103 26.3835 9.50631 27.8587C10.7212 29.0737 11.3287 30.6357 11.3287 32.2846C11.3287 36.4501 14.7132 39.9213 18.9654 39.9213C20.6143 39.9213 22.2631 40.6155 23.3913 41.7437C24.8666 43.219 26.7757 44 28.7717 44C30.6809 44 32.6768 43.219 34.1521 41.7437C35.4538 40.5288 37.0159 39.9213 38.6647 39.9213ZM24.768 18.0193C25.2012 18.0193 25.5851 17.7403 25.719 17.3283L27.7989 10.9271C28.0982 10.0058 29.4017 10.0058 29.701 10.9271L31.7809 17.3283C31.9148 17.7403 32.2987 18.0193 32.7319 18.0193H39.4626C40.4313 18.0193 40.8341 19.2589 40.0504 19.8283L34.6052 23.7845C34.2547 24.0391 34.108 24.4905 34.2419 24.9025L36.3218 31.3037C36.6211 32.225 35.5667 32.9911 34.7829 32.4217L29.3377 28.4656C28.9873 28.2109 28.5127 28.2109 28.1622 28.4656L22.717 32.4217C21.9333 32.9911 20.8788 32.225 21.1781 31.3037L23.258 24.9025C23.3919 24.4905 23.2452 24.0391 22.8947 23.7845L17.4495 19.8283C16.6658 19.2589 17.0686 18.0193 18.0373 18.0193H24.768ZM28.0967 18.1008L28.75 16.0902L29.4033 18.1008C29.8718 19.5429 31.2157 20.5193 32.7319 20.5193H34.8461L33.1357 21.7619C31.909 22.6532 31.3957 24.233 31.8643 25.675L32.5176 27.6857L30.8072 26.443C29.5805 25.5518 27.9194 25.5518 26.6927 26.443L24.9824 27.6857L25.6357 25.675C26.1042 24.233 25.5909 22.6532 24.3642 21.7619L22.6538 20.5193H24.768C26.2843 20.5193 27.6281 19.5429 28.0967 18.1008ZM10.2893 38.8723C10.9121 39.1702 11.1755 39.9165 10.8777 40.5393L6.70537 49.2632L13.3179 46.8271C13.9657 46.5884 14.6843 46.9201 14.923 47.5679L17.4241 54.3567L22.132 44.941C22.4407 44.3235 23.1916 44.0732 23.809 44.382C24.4265 44.6907 24.6768 45.4415 24.3681 46.059L18.3681 58.059C18.1451 58.5049 17.6786 58.7756 17.1809 58.7481C16.6832 58.7205 16.2494 58.3999 16.0771 57.9321L13.0092 49.605L4.68216 52.6729C4.20482 52.8488 3.66853 52.7178 3.32596 52.3418C2.98339 51.9657 2.90288 51.4196 3.12236 50.9607L8.62236 39.4607C8.92021 38.8379 9.66655 38.5745 10.2893 38.8723ZM45.6223 40.5393C45.3245 39.9165 45.5879 39.1702 46.2107 38.8723C46.8335 38.5745 47.5798 38.8379 47.8776 39.4607L53.3776 50.9607C53.5971 51.4196 53.5166 51.9657 53.174 52.3418C52.8315 52.7178 52.2952 52.8488 51.8178 52.6729L43.4908 49.605L40.4229 57.9321C40.2506 58.3999 39.8168 58.7205 39.3191 58.7481C38.8214 58.7756 38.3549 58.5049 38.1319 58.059L32.1319 46.059C31.8232 45.4415 32.0735 44.6907 32.691 44.382C33.3084 44.0732 34.0593 44.3235 34.368 44.941L39.0759 54.3567L41.577 47.5679C41.8157 46.9201 42.5343 46.5884 43.1821 46.8271L49.7946 49.2632L45.6223 40.5393Z" fill="white"/>
</svg>
