<svg width="56" height="60" viewBox="0 0 56 60" fill="none" xmlns="http://www.w3.org/2000/svg">
<path fill-rule="evenodd" clip-rule="evenodd" d="M5.5 7.05976C5.5 6.74182 5.74182 6.5 6.05976 6.5H50.2696C50.5875 6.5 50.8294 6.74182 50.8294 7.05976V12.7386H5.5V7.05976ZM50.8294 42.7379V15.2386H5.5V42.7379C5.5 43.0558 5.74182 43.2976 6.05976 43.2976H15.0827C15.7731 43.2976 16.3327 43.8573 16.3327 44.5476C16.3327 45.238 15.7731 45.7976 15.0827 45.7976H6.05976C4.36111 45.7976 3 44.4365 3 42.7379V13.911V7.05976C3 5.36111 4.36111 4 6.05976 4H50.2696C51.9682 4 53.3294 5.36111 53.3294 7.05976V42.7379C53.3294 44.4365 51.9682 45.7976 50.2696 45.7976H44.6335C43.9431 45.7976 43.3835 45.238 43.3835 44.5476C43.3835 43.8573 43.9431 43.2976 44.6335 43.2976H50.2696C50.5875 43.2976 50.8294 43.0558 50.8294 42.7379ZM25.6311 27.7596C24.9407 27.7596 24.3811 28.3192 24.3811 29.0096V33.9903H23.8213C23.1309 33.9903 22.5713 34.5499 22.5713 35.2403C22.5713 35.9306 23.1309 36.4903 23.8213 36.4903H24.381V37.4637H23.8729C23.1826 37.4637 22.6229 38.0233 22.6229 38.7137C22.6229 39.404 23.1826 39.9637 23.8729 39.9637H24.381V40.6954C24.381 41.3857 24.9407 41.9454 25.631 41.9454C26.3214 41.9454 26.881 41.3857 26.881 40.6954V39.9637H27.6476C28.3379 39.9637 28.8976 39.404 28.8976 38.7137C28.8976 38.0233 28.3379 37.4637 27.6476 37.4637H26.881V36.4903H29.9228C32.3263 36.4903 34.2753 34.5278 34.2753 32.112C34.2753 29.7153 32.3195 27.7596 29.9228 27.7596H25.6311ZM26.8811 33.9903V30.2596H29.9228C30.9388 30.2596 31.7753 31.096 31.7753 32.112C31.7753 33.1606 30.9321 33.9903 29.9228 33.9903H26.8811ZM9.93781 10.1622C9.93781 10.7333 9.47481 11.1963 8.90366 11.1963C8.33251 11.1963 7.86951 10.7333 7.86951 10.1622C7.86951 9.59106 8.33251 9.12805 8.90366 9.12805C9.47481 9.12805 9.93781 9.59106 9.93781 10.1622ZM13.0403 11.1963C13.6114 11.1963 14.0744 10.7333 14.0744 10.1622C14.0744 9.59106 13.6114 9.12805 13.0403 9.12805C12.4691 9.12805 12.0061 9.59106 12.0061 10.1622C12.0061 10.7333 12.4691 11.1963 13.0403 11.1963ZM18.211 10.1622C18.211 10.7333 17.748 11.1963 17.1768 11.1963C16.6057 11.1963 16.1427 10.7333 16.1427 10.1622C16.1427 9.59106 16.6057 9.12805 17.1768 9.12805C17.748 9.12805 18.211 9.59106 18.211 10.1622ZM27.389 23.3049C21.0115 23.3049 15.8414 28.4749 15.8414 34.8525C15.8414 41.23 21.0115 46.4001 27.389 46.4001C33.7666 46.4001 38.9366 41.23 38.9366 34.8525C38.9366 28.4749 33.7666 23.3049 27.389 23.3049ZM13.3414 34.8525C13.3414 27.0942 19.6308 20.8049 27.389 20.8049C35.1473 20.8049 41.4366 27.0942 41.4366 34.8525C41.4366 38.3211 40.1795 41.4961 38.096 43.9467L45.7242 51.575C46.9197 52.7704 46.8229 54.7002 45.6725 55.8506C44.5236 56.9995 42.5971 57.0975 41.4014 55.9067L33.0574 47.7095C31.3237 48.475 29.406 48.9001 27.389 48.9001C19.6308 48.9001 13.3414 42.6108 13.3414 34.8525ZM35.3326 46.4401L43.1568 54.1267L43.1648 54.1345L43.1647 54.1345C43.3137 54.2835 43.659 54.3285 43.9048 54.0828C44.1505 53.8371 44.1054 53.4917 43.9565 53.3427L36.3144 45.7007C35.9984 45.961 35.6708 46.2077 35.3326 46.4401Z" fill="white"/>
</svg>
