<svg width="56" height="60" viewBox="0 0 56 60" fill="none" xmlns="http://www.w3.org/2000/svg">
<path fill-rule="evenodd" clip-rule="evenodd" d="M6.05976 11.5C5.74182 11.5 5.5 11.7418 5.5 12.0598V17.7385H50.8294V12.0598C50.8294 11.7418 50.5875 11.5 50.2696 11.5H6.05976ZM5.5 47.7379V20.2385H50.8294V47.7379C50.8294 48.0558 50.5875 48.2976 50.2696 48.2976H38.5V44.75C38.5 40.26 35.7473 36.4129 31.8374 34.8043C33.3091 33.6127 34.25 31.7912 34.25 29.75C34.25 26.1601 31.3399 23.25 27.75 23.25C24.1601 23.25 21.25 26.1601 21.25 29.75C21.25 31.7912 22.1909 33.6127 23.6626 34.8043C19.7527 36.4129 17 40.26 17 44.75V48.2976H6.05976C5.74182 48.2976 5.5 48.0558 5.5 47.7379ZM19.5 48.2976H36V44.75C36 40.1937 32.3063 36.5 27.75 36.5C23.1937 36.5 19.5 40.1937 19.5 44.75V48.2976ZM50.2696 50.7976C51.9682 50.7976 53.3294 49.4365 53.3294 47.7379V12.0598C53.3294 10.3611 51.9683 9 50.2696 9H6.05976C4.36111 9 3 10.3611 3 12.0598V47.7379C3 49.4365 4.36111 50.7976 6.05976 50.7976H50.2696ZM9.93781 15.1622C9.93781 15.7333 9.47481 16.1963 8.90366 16.1963C8.33251 16.1963 7.86951 15.7333 7.86951 15.1622C7.86951 14.5911 8.33251 14.1281 8.90366 14.1281C9.47481 14.1281 9.93781 14.5911 9.93781 15.1622ZM13.0403 16.1963C13.6114 16.1963 14.0744 15.7333 14.0744 15.1622C14.0744 14.5911 13.6114 14.1281 13.0403 14.1281C12.4691 14.1281 12.0061 14.5911 12.0061 15.1622C12.0061 15.7333 12.4691 16.1963 13.0403 16.1963ZM18.211 15.1622C18.211 15.7333 17.748 16.1963 17.1768 16.1963C16.6057 16.1963 16.1427 15.7333 16.1427 15.1622C16.1427 14.5911 16.6057 14.1281 17.1768 14.1281C17.748 14.1281 18.211 14.5911 18.211 15.1622ZM27.75 33.75C29.9591 33.75 31.75 31.9591 31.75 29.75C31.75 27.5409 29.9591 25.75 27.75 25.75C25.5409 25.75 23.75 27.5409 23.75 29.75C23.75 31.9591 25.5409 33.75 27.75 33.75Z" fill="white"/>
</svg>
