<svg width="56" height="60" viewBox="0 0 56 60" fill="none" xmlns="http://www.w3.org/2000/svg">
<path fill-rule="evenodd" clip-rule="evenodd" d="M5.94545 8.00001C6.34549 7.99879 6.72195 8.18913 6.95814 8.51201L9.69189 12.2493C10.0995 12.8065 9.97818 13.5886 9.42098 13.9962C8.86378 14.4038 8.08167 14.2825 7.67409 13.7253L7.19922 13.0761V47.1032H11.8971V39.1136C11.8971 38.4233 12.4567 37.8636 13.1471 37.8636C13.8375 37.8636 14.3971 38.4233 14.3971 39.1136V47.1032H21.7246V32.9195C21.7246 32.2291 22.2843 31.6695 22.9746 31.6695C23.665 31.6695 24.2246 32.2291 24.2246 32.9195V47.1032H31.5522V23.3341C31.5522 22.6437 32.1119 22.0841 32.8022 22.0841C33.4926 22.0841 34.0522 22.6437 34.0522 23.3341V47.1032H41.38V15.7901C41.38 15.0998 41.9396 14.5401 42.63 14.5401C43.3204 14.5401 43.88 15.0998 43.88 15.7901V47.1032H49.1132L48.103 46.1461C47.6018 45.6713 47.5804 44.8801 48.0552 44.3789C48.53 43.8778 49.3212 43.8564 49.8223 44.3312L53.1098 47.4456C53.1849 47.5168 53.2502 47.5963 53.3048 47.6821C53.4034 47.8368 53.4689 48.0146 53.4913 48.2056C53.4971 48.2542 53.5001 48.3035 53.5001 48.353C53.5001 48.3946 53.498 48.436 53.4939 48.477C53.4634 48.7878 53.3189 49.0652 53.103 49.2669L49.8223 52.3749C49.3212 52.8497 48.53 52.8283 48.0552 52.3271C47.5804 51.8259 47.6018 51.0348 48.103 50.56L49.113 49.6032H5.94922C5.25886 49.6032 4.69922 49.0435 4.69922 48.3532V13.1158L4.26344 13.7191C3.85924 14.2788 3.07789 14.4048 2.51823 14.0006C1.95857 13.5964 1.83255 12.8151 2.23674 12.2554L4.93589 8.51814C5.17011 8.19383 5.54541 8.00122 5.94545 8.00001ZM36.136 10.6514L12.2638 34.4919C11.7753 34.9797 11.7748 35.7712 12.2626 36.2596C12.7505 36.7481 13.5419 36.7486 14.0304 36.2608L37.8633 12.4597L37.8503 14.2933C37.8454 14.9837 38.401 15.5473 39.0914 15.5522C39.7817 15.5571 40.3453 15.0014 40.3502 14.3111L40.3847 9.45389C40.3928 9.12405 40.2711 8.7916 40.0195 8.53971C39.8883 8.40836 39.7352 8.31228 39.5719 8.25151C39.4386 8.20175 39.2944 8.17409 39.1438 8.173L34.3338 8.1384C33.6435 8.13343 33.0798 8.68904 33.0749 9.37937C33.0699 10.0697 33.6255 10.6334 34.3158 10.6383L36.136 10.6514Z" fill="white"/>
</svg>
