<svg width="85" height="86" viewBox="0 0 85 86" fill="none" xmlns="http://www.w3.org/2000/svg">
<path fill-rule="evenodd" clip-rule="evenodd" d="M42.929 0.948792C44.0335 0.948792 44.929 1.84422 44.929 2.94879V7.00341C63.2189 8.00492 77.8728 22.6589 78.8743 40.9488H82.429C83.5335 40.9488 84.429 41.8442 84.429 42.9488C84.429 44.0534 83.5335 44.9488 82.429 44.9488H78.8743C78.5562 50.7532 76.8621 56.1955 74.1116 60.9502C73.5585 61.9064 72.335 62.2331 71.3789 61.68C70.4228 61.1269 70.0961 59.9035 70.6492 58.9473C73.0572 54.7845 74.5545 50.029 74.8675 44.9488H71.929C70.8244 44.9488 69.929 44.0534 69.929 42.9488C69.929 41.8442 70.8244 40.9488 71.929 40.9488H74.8675C73.8759 24.8688 61.009 12.0019 44.929 11.0103V13.4488C44.929 14.5534 44.0335 15.4488 42.929 15.4488C41.8244 15.4488 40.929 14.5534 40.929 13.4488V11.0103C24.8489 12.0019 11.982 24.8688 10.9904 40.9488H13.429C14.5335 40.9488 15.429 41.8442 15.429 42.9488C15.429 44.0534 14.5335 44.9488 13.429 44.9488H10.9904C11.982 61.0288 24.8489 73.8957 40.929 74.8873V72.9488C40.929 71.8442 41.8244 70.9488 42.929 70.9488C44.0335 70.9488 44.929 71.8442 44.929 72.9488V74.8874C50.0091 74.5744 54.7647 73.077 58.9275 70.669C59.8836 70.1159 61.1071 70.4426 61.6602 71.3987C62.2133 72.3549 61.8865 73.5783 60.9304 74.1314C56.1756 76.8819 50.7334 78.576 44.929 78.8941V83.4488C44.929 84.5534 44.0335 85.4488 42.929 85.4488C41.8244 85.4488 40.929 84.5534 40.929 83.4488V78.8942C22.639 77.8927 7.98508 63.2387 6.98357 44.9488H2.92895C1.82439 44.9488 0.928955 44.0534 0.928955 42.9488C0.928955 41.8442 1.82439 40.9488 2.92896 40.9488H6.98357C7.98508 22.6589 22.639 8.00492 40.929 7.00341V2.94879C40.929 1.84422 41.8244 0.948792 42.929 0.948792Z" fill="white"/>
<path fill-rule="evenodd" clip-rule="evenodd" d="M58.929 42.9488C58.929 51.7854 51.7655 58.9488 42.929 58.9488C34.0924 58.9488 26.929 51.7854 26.929 42.9488C26.929 34.1122 34.0924 26.9488 42.929 26.9488C51.7655 26.9488 58.929 34.1122 58.929 42.9488ZM55.5864 58.4347C52.1387 61.2561 47.7315 62.9488 42.929 62.9488C31.8833 62.9488 22.929 53.9945 22.929 42.9488C22.929 31.9031 31.8833 22.9488 42.929 22.9488C53.9747 22.9488 62.929 31.9031 62.929 42.9488C62.929 47.7513 61.2362 52.1585 58.4149 55.6063L78.3432 75.5346C79.1242 76.3156 79.1242 77.582 78.3432 78.363C77.5621 79.1441 76.2958 79.1441 75.5147 78.363L55.5864 58.4347Z" fill="white"/>
</svg>
