<svg width="91" height="91" viewBox="0 0 91 91" fill="none" xmlns="http://www.w3.org/2000/svg">
<path fill-rule="evenodd" clip-rule="evenodd" d="M67.7869 10.9488C67.7869 14.2625 65.1006 16.9488 61.7869 16.9488C58.4732 16.9488 55.7869 14.2625 55.7869 10.9488C55.7869 7.63508 58.4732 4.94879 61.7869 4.94879C65.1006 4.94879 67.7869 7.63508 67.7869 10.9488ZM71.7869 10.9488C71.7869 16.4716 67.3097 20.9488 61.7869 20.9488C61.0011 20.9488 60.2364 20.8582 59.5029 20.6868L55.105 30.2821L51.4687 28.6155L55.8705 19.0117C53.3941 17.1915 51.7869 14.2578 51.7869 10.9488C51.7869 5.42594 56.264 0.948792 61.7869 0.948792C67.3097 0.948792 71.7869 5.42594 71.7869 10.9488ZM8.78687 22.9488C10.5881 22.9488 12.2504 22.3535 13.5875 21.3489L30.4533 36.4393L33.1205 33.4583L16.0896 18.2202C16.5376 17.2215 16.7869 16.1143 16.7869 14.9488C16.7869 10.5305 13.2051 6.94879 8.78687 6.94879C4.36859 6.94879 0.786865 10.5305 0.786865 14.9488C0.786865 19.3671 4.36859 22.9488 8.78687 22.9488ZM75.0389 44.9488C75.927 41.4983 79.0592 38.9488 82.7869 38.9488C87.2051 38.9488 90.7869 42.5305 90.7869 46.9488C90.7869 51.3671 87.2051 54.9488 82.7869 54.9488C79.0592 54.9488 75.927 52.3992 75.0389 48.9488H64.2869V44.9488H75.0389ZM67.7869 74.9488C67.2966 74.9488 66.8166 74.9929 66.3507 75.0773L57.4829 60.8888L54.0909 63.0088L62.6961 76.7772C60.9193 78.2446 59.7869 80.4644 59.7869 82.9488C59.7869 87.3671 63.3686 90.9488 67.7869 90.9488C72.2051 90.9488 75.7869 87.3671 75.7869 82.9488C75.7869 78.5305 72.2051 74.9488 67.7869 74.9488ZM24.4257 72.1384C25.9044 74.0115 26.7869 76.3771 26.7869 78.9488C26.7869 85.0239 21.862 89.9488 15.7869 89.9488C9.71173 89.9488 4.78687 85.0239 4.78687 78.9488C4.78687 72.8737 9.71173 67.9488 15.7869 67.9488C17.8427 67.9488 19.7667 68.5127 21.4128 69.4944L31.3727 59.5346L34.2011 62.363L24.4257 72.1384ZM8.78687 18.9488C10.996 18.9488 12.7869 17.1579 12.7869 14.9488C12.7869 12.7397 10.996 10.9488 8.78687 10.9488C6.57773 10.9488 4.78687 12.7397 4.78687 14.9488C4.78687 17.1579 6.57773 18.9488 8.78687 18.9488ZM86.7869 46.9488C86.7869 49.1579 84.996 50.9488 82.7869 50.9488C80.5777 50.9488 78.7869 49.1579 78.7869 46.9488C78.7869 44.7397 80.5777 42.9488 82.7869 42.9488C84.996 42.9488 86.7869 44.7397 86.7869 46.9488ZM67.7869 86.9488C69.996 86.9488 71.7869 85.1579 71.7869 82.9488C71.7869 80.7397 69.996 78.9488 67.7869 78.9488C65.5777 78.9488 63.7869 80.7397 63.7869 82.9488C63.7869 85.1579 65.5777 86.9488 67.7869 86.9488ZM22.7869 78.9488C22.7869 82.8148 19.6529 85.9488 15.7869 85.9488C11.9209 85.9488 8.78687 82.8148 8.78687 78.9488C8.78687 75.0828 11.9209 71.9488 15.7869 71.9488C19.6529 71.9488 22.7869 75.0828 22.7869 78.9488Z" fill="white"/>
<path d="M38.491 50.9488V49.7368L38.335 49.4368V47.2048C38.335 46.8448 38.223 46.5688 37.999 46.3768C37.783 46.1768 37.435 46.0768 36.955 46.0768C36.643 46.0768 36.327 46.1288 36.007 46.2328C35.687 46.3288 35.415 46.4648 35.191 46.6408L34.423 45.0928C34.791 44.8528 35.231 44.6688 35.743 44.5408C36.263 44.4048 36.779 44.3368 37.291 44.3368C38.347 44.3368 39.163 44.5808 39.739 45.0688C40.323 45.5488 40.615 46.3048 40.615 47.3368V50.9488H38.491ZM36.571 51.0568C36.051 51.0568 35.611 50.9688 35.251 50.7928C34.891 50.6168 34.615 50.3768 34.423 50.0728C34.239 49.7688 34.147 49.4288 34.147 49.0528C34.147 48.6528 34.247 48.3088 34.447 48.0208C34.655 47.7248 34.971 47.5008 35.395 47.3488C35.819 47.1888 36.367 47.1088 37.039 47.1088H38.575V48.2968H37.351C36.983 48.2968 36.723 48.3568 36.571 48.4768C36.427 48.5968 36.355 48.7568 36.355 48.9568C36.355 49.1568 36.431 49.3168 36.583 49.4368C36.735 49.5568 36.943 49.6168 37.207 49.6168C37.455 49.6168 37.679 49.5568 37.879 49.4368C38.087 49.3088 38.239 49.1168 38.335 48.8608L38.647 49.7008C38.527 50.1488 38.291 50.4888 37.939 50.7208C37.595 50.9448 37.139 51.0568 36.571 51.0568Z" fill="white"/>
<path d="M44.9682 51.0568C44.3762 51.0568 43.8362 50.9208 43.3482 50.6488C42.8682 50.3688 42.4842 49.9808 42.1962 49.4848C41.9082 48.9808 41.7642 48.3808 41.7642 47.6848C41.7642 46.9968 41.9082 46.4048 42.1962 45.9088C42.4842 45.4048 42.8682 45.0168 43.3482 44.7448C43.8362 44.4728 44.3762 44.3368 44.9682 44.3368C45.5282 44.3368 46.0002 44.4568 46.3842 44.6968C46.7762 44.9368 47.0722 45.3048 47.2722 45.8008C47.4722 46.2968 47.5722 46.9248 47.5722 47.6848C47.5722 48.4608 47.4762 49.0968 47.2842 49.5928C47.0922 50.0888 46.8042 50.4568 46.4202 50.6968C46.0362 50.9368 45.5522 51.0568 44.9682 51.0568ZM45.4482 49.2448C45.7042 49.2448 45.9322 49.1848 46.1322 49.0648C46.3402 48.9448 46.5042 48.7688 46.6242 48.5368C46.7442 48.2968 46.8042 48.0128 46.8042 47.6848C46.8042 47.3568 46.7442 47.0808 46.6242 46.8568C46.5042 46.6248 46.3402 46.4488 46.1322 46.3288C45.9322 46.2088 45.7042 46.1488 45.4482 46.1488C45.1842 46.1488 44.9482 46.2088 44.7402 46.3288C44.5402 46.4488 44.3802 46.6248 44.2602 46.8568C44.1402 47.0808 44.0802 47.3568 44.0802 47.6848C44.0802 48.0128 44.1402 48.2968 44.2602 48.5368C44.3802 48.7688 44.5402 48.9448 44.7402 49.0648C44.9482 49.1848 45.1842 49.2448 45.4482 49.2448ZM46.8762 50.9488V49.8328L46.8882 47.6848L46.7682 45.5368V42.0448H49.0482V50.9488H46.8762Z" fill="white"/>
<path d="M52.8791 51.0568C52.3271 51.0568 51.7871 50.9928 51.2591 50.8648C50.7391 50.7368 50.3191 50.5768 49.9991 50.3848L50.6831 48.8248C50.9871 49.0088 51.3431 49.1568 51.7511 49.2688C52.1591 49.3728 52.5591 49.4248 52.9511 49.4248C53.3351 49.4248 53.5991 49.3848 53.7431 49.3048C53.8951 49.2248 53.9711 49.1168 53.9711 48.9808C53.9711 48.8528 53.8991 48.7608 53.7551 48.7048C53.6191 48.6408 53.4351 48.5928 53.2031 48.5608C52.9791 48.5288 52.7311 48.4928 52.4591 48.4528C52.1871 48.4128 51.9111 48.3608 51.6311 48.2968C51.3591 48.2248 51.1071 48.1208 50.8751 47.9848C50.6511 47.8408 50.4711 47.6488 50.3351 47.4088C50.1991 47.1688 50.1311 46.8648 50.1311 46.4968C50.1311 46.0808 50.2511 45.7128 50.4911 45.3928C50.7391 45.0648 51.0991 44.8088 51.5711 44.6248C52.0431 44.4328 52.6191 44.3368 53.2991 44.3368C53.7551 44.3368 54.2151 44.3848 54.6791 44.4808C55.1511 44.5688 55.5471 44.7048 55.8671 44.8888L55.1831 46.4368C54.8631 46.2528 54.5431 46.1288 54.2231 46.0648C53.9031 45.9928 53.5991 45.9568 53.3111 45.9568C52.9271 45.9568 52.6551 46.0008 52.4951 46.0888C52.3431 46.1768 52.2671 46.2848 52.2671 46.4128C52.2671 46.5408 52.3351 46.6408 52.4711 46.7128C52.6071 46.7768 52.7871 46.8288 53.0111 46.8688C53.2431 46.9008 53.4951 46.9368 53.7671 46.9768C54.0391 47.0088 54.3111 47.0608 54.5831 47.1328C54.8631 47.2048 55.1151 47.3128 55.3391 47.4568C55.5711 47.5928 55.7551 47.7808 55.8911 48.0208C56.0271 48.2528 56.0951 48.5528 56.0951 48.9208C56.0951 49.3208 55.9711 49.6808 55.7231 50.0008C55.4831 50.3208 55.1231 50.5768 54.6431 50.7688C54.1711 50.9608 53.5831 51.0568 52.8791 51.0568Z" fill="white"/>
<path fill-rule="evenodd" clip-rule="evenodd" d="M44.7869 62.9488C53.6234 62.9488 60.7869 55.7853 60.7869 46.9488C60.7869 38.1122 53.6234 30.9488 44.7869 30.9488C35.9503 30.9488 28.7869 38.1122 28.7869 46.9488C28.7869 55.7853 35.9503 62.9488 44.7869 62.9488ZM44.7869 66.9488C55.8326 66.9488 64.7869 57.9945 64.7869 46.9488C64.7869 35.9031 55.8326 26.9488 44.7869 26.9488C33.7412 26.9488 24.7869 35.9031 24.7869 46.9488C24.7869 57.9945 33.7412 66.9488 44.7869 66.9488Z" fill="white"/>
</svg>
