<svg width="27" height="28" viewBox="0 0 27 28" fill="none" xmlns="http://www.w3.org/2000/svg">
<path d="M26.1667 22.258L26.1669 22.2585C26.2704 22.5698 26.2812 22.9977 26.1768 23.4403C26.0724 23.8829 25.8718 24.26 25.6409 24.491L25.6408 24.491L23.7219 26.4103C23.722 26.4101 23.7217 26.4104 23.721 26.4109C23.7144 26.416 23.6725 26.4482 23.5719 26.4963C23.4687 26.5456 23.3433 26.593 23.2131 26.6352C23.0847 26.6768 22.9634 26.7097 22.8732 26.7318C22.8432 26.7392 22.8176 26.7452 22.7973 26.7497C16.9429 26.781 11.3117 24.4739 7.16814 20.3295C3.01786 16.1784 0.708186 10.5312 0.750573 4.66414C0.754851 4.6472 0.759923 4.62755 0.76576 4.60562C0.788566 4.51995 0.821902 4.4038 0.863931 4.28027C0.906587 4.15488 0.954287 4.0335 1.00384 3.93298C1.05698 3.82517 1.0912 3.7849 1.09265 3.7832L1.0927 3.78314L1.0927 3.78314L1.09434 3.7815L3.01449 1.85924C3.0145 1.85923 3.01451 1.85922 3.01452 1.85921C3.24544 1.62827 3.62246 1.42758 4.06498 1.32318C4.50696 1.2189 4.93426 1.22958 5.24531 1.33281C5.24564 1.33292 5.24597 1.33303 5.24631 1.33314L5.649 1.46857L5.65082 1.46918C5.97588 1.57756 6.35868 1.83364 6.69658 2.19056C7.03451 2.54752 7.26892 2.94343 7.35888 3.27354L8.32605 6.82283C8.32608 6.82294 8.32611 6.82305 8.32614 6.82316C8.41449 7.14826 8.40803 7.59451 8.28898 8.05244C8.16975 8.51104 7.95918 8.8986 7.72543 9.13239L6.44157 10.4165L6.13481 10.7233L6.24785 11.1422C7.57642 16.0655 11.4363 19.9261 16.3595 21.2567L16.7786 21.37L17.0856 21.0629L18.3693 19.7789C18.6029 19.5453 18.9907 19.3347 19.4498 19.2154C19.9083 19.0962 20.3551 19.0898 20.68 19.1782L24.2265 20.1472L24.2278 20.1476C24.5566 20.2368 24.9518 20.4702 25.3089 20.8079C25.6653 21.1449 25.9225 21.5276 26.0328 21.8545C26.033 21.8549 26.0331 21.8554 26.0333 21.8559L26.1667 22.258ZM22.8716 26.7492L22.8652 26.7492L22.8716 26.7492Z" stroke="#333333" stroke-width="1.5"/>
</svg>
