<svg width="17" height="17" viewBox="0 0 17 17" fill="none" xmlns="http://www.w3.org/2000/svg">
<circle cx="8.3197" cy="8.55603" r="7.92981" fill="url(#paint0_linear_680_1219)"/>
<path d="M6.94025 3.30469H9.69936L9.23951 10.0838H7.4001L6.94025 3.30469ZM8.31981 13.8071C7.91435 13.8071 7.57317 13.6785 7.29627 13.4214C7.02926 13.1544 6.89575 12.833 6.89575 12.4572C6.89575 12.0814 7.02926 11.7699 7.29627 11.5227C7.56328 11.2656 7.90446 11.137 8.31981 11.137C8.73516 11.137 9.07634 11.2656 9.34335 11.5227C9.61036 11.7699 9.74386 12.0814 9.74386 12.4572C9.74386 12.833 9.60541 13.1544 9.32851 13.4214C9.0615 13.6785 8.72527 13.8071 8.31981 13.8071Z" fill="white"/>
<defs>
<linearGradient id="paint0_linear_680_1219" x1="-0.686994" y1="-3.09394" x2="21.0466" y2="20.206" gradientUnits="userSpaceOnUse">
<stop stop-color="#EB235F"/>
<stop offset="1" stop-color="#E8950D"/>
</linearGradient>
</defs>
</svg>
