<svg width="130" height="130" viewBox="0 0 130 130" fill="none" xmlns="http://www.w3.org/2000/svg">
<path d="M76.7065 94.2225C77.0686 90.9896 75.1712 87.8889 72.0774 86.8456V86.8448L77.0679 74.4805L81.9768 79.9499C84.6747 82.9568 85.4558 87.2269 83.9804 90.988L79.3321 100.504C76.9887 105.302 80.3577 111.056 85.6972 111.117C85.7364 111.118 85.7756 111.118 85.8149 111.118H105.505C109.962 111.118 113.847 107.782 114.204 103.341C114.544 99.1038 111.761 95.4672 107.915 94.4554C107.942 94.2379 107.961 94.018 107.961 93.7927C107.961 90.9134 105.627 88.5793 102.748 88.5793C102.284 88.5793 101.839 88.6454 101.411 88.7592C101.411 88.7323 101.416 88.7069 101.416 88.68C101.416 85.8553 99.1256 83.5658 96.3017 83.5658C94.7502 83.5658 93.3625 84.26 92.4253 85.351" stroke="#333333" stroke-width="3" stroke-miterlimit="10" stroke-linecap="round" stroke-linejoin="round"/>
<path d="M75.079 31.4539C75.079 31.4539 71.4639 33.0192 65.1142 33.0192C58.7644 33.0192 55.1509 31.4539 55.1509 31.4539" stroke="#333333" stroke-width="3" stroke-miterlimit="10"/>
<path d="M71.5208 51.2243C71.5208 47.6861 68.6523 44.8184 65.1141 44.8184C61.5775 44.8184 58.709 47.6861 58.709 51.2243C58.709 54.7616 61.5775 57.6294 65.1141 57.6294C68.6523 57.6294 71.5208 54.7616 71.5208 51.2243Z" stroke="#333333" stroke-width="3" stroke-miterlimit="10"/>
<path d="M65.1142 52.5164C64.4024 52.5164 63.822 51.9361 63.822 51.2243C63.822 50.5116 64.4025 49.9314 65.1142 49.9314C65.827 49.9314 66.4078 50.512 66.4078 51.2243C66.4078 51.9357 65.8272 52.5164 65.1142 52.5164Z" fill="#FFC524" stroke="#333333"/>
<path d="M60.7964 91.0291C60.7134 95.9173 61.9481 102.479 65.1141 111.119C68.2802 102.479 69.5149 95.9165 69.4319 91.0291" stroke="#333333" stroke-width="3" stroke-miterlimit="10" stroke-linecap="round" stroke-linejoin="round"/>
<path d="M53.5239 94.2227C53.1618 90.9898 55.0593 87.8891 58.1531 86.8458V86.845L53.1626 74.4814L48.2536 79.9509C45.5558 82.9578 44.7746 87.2279 46.25 90.989L50.8984 100.505C53.2425 105.303 49.8728 111.057 44.5332 111.118C44.494 111.119 44.4548 111.119 44.4156 111.119H24.7266C20.2705 111.119 16.3848 107.783 16.0281 103.342C15.6883 99.1048 18.4714 95.4682 22.3171 94.4564C22.2902 94.2388 22.271 94.019 22.271 93.7937C22.271 90.9144 24.6051 88.5802 27.4836 88.5802C27.948 88.5802 28.3932 88.6464 28.8207 88.7602C28.8207 88.7333 28.816 88.7079 28.816 88.681C28.816 85.8563 31.1064 83.5667 33.9303 83.5667C35.4818 83.5667 36.8695 84.261 37.8075 85.3519" stroke="#333333" stroke-width="3" stroke-miterlimit="10" stroke-linecap="round" stroke-linejoin="round"/>
<path d="M53.1634 74.4814C39.5198 41.2033 65.1141 18 65.1141 18C65.1141 18 90.7108 41.2033 77.0664 74.4814" stroke="#333333" stroke-width="3" stroke-miterlimit="10"/>
<path d="M58.7097 51.2243C58.7097 47.6861 61.5782 44.8184 65.1164 44.8184C68.653 44.8184 71.5215 47.6861 71.5215 51.2243C71.5215 54.7616 68.653 57.6294 65.1164 57.6294C61.5775 57.6294 58.7097 54.7616 58.7097 51.2243Z" stroke="#333333" stroke-width="3" stroke-miterlimit="10"/>
<path d="M65.1157 53.0164C64.127 53.0164 63.322 52.2123 63.322 51.2243C63.322 50.2356 64.127 49.4314 65.1157 49.4314C66.1036 49.4314 66.9078 50.2356 66.9078 51.2243C66.9078 52.2123 66.1036 53.0164 65.1157 53.0164Z" fill="url(#paint0_linear_72_2797)"/>
<path d="M69.4334 91.0291C69.5164 95.9173 68.2816 102.479 65.1156 111.119C61.9496 102.479 60.7148 95.9165 60.7979 91.0291" stroke="#333333" stroke-width="3" stroke-miterlimit="10" stroke-linecap="round" stroke-linejoin="round"/>
<path d="M109.124 101.34C108.384 101.934 107.313 102.291 106.29 102.291H90.3394C90.3394 102.291 84.7393 101.656 84.7393 106.505H105.504C107.643 106.505 109.237 105.694 109.604 103.741C109.785 102.779 109.555 101.998 109.124 101.34Z" fill="url(#paint1_linear_72_2797)"/>
<path d="M21.1054 101.34C21.8458 101.934 22.9168 102.291 23.9401 102.291H39.8903C39.8903 102.291 45.4904 101.656 45.4904 106.505H24.7259C22.5862 106.505 20.9932 105.694 20.6257 103.741C20.445 102.779 20.6749 101.998 21.1054 101.34Z" fill="url(#paint2_linear_72_2797)"/>
<defs>
<linearGradient id="paint0_linear_72_2797" x1="63.0785" y1="48.5905" x2="67.9913" y2="53.8584" gradientUnits="userSpaceOnUse">
<stop stop-color="#EB235F"/>
<stop offset="1" stop-color="#E8950D"/>
</linearGradient>
<linearGradient id="paint1_linear_72_2797" x1="83.0467" y1="100.129" x2="85.6906" y2="113.808" gradientUnits="userSpaceOnUse">
<stop stop-color="#EB235F"/>
<stop offset="1" stop-color="#E8950D"/>
</linearGradient>
<linearGradient id="paint2_linear_72_2797" x1="18.871" y1="100.129" x2="21.5149" y2="113.808" gradientUnits="userSpaceOnUse">
<stop stop-color="#EB235F"/>
<stop offset="1" stop-color="#E8950D"/>
</linearGradient>
</defs>
</svg>
