<svg width="50" height="50" viewBox="0 0 50 50" fill="none" xmlns="http://www.w3.org/2000/svg">
<path d="M49.7508 21.0295C49.6369 20.9157 49.4967 20.8319 49.3426 20.7853C49.1885 20.7388 49.0253 20.731 48.8675 20.7627L40.4503 22.4564C40.2772 22.4913 40.1167 22.5725 39.986 22.6913C39.8553 22.8102 39.7593 22.9622 39.7082 23.1313C39.6571 23.3004 39.6528 23.4802 39.6958 23.6515C39.7388 23.8228 39.8275 23.9793 39.9523 24.1042L41.0911 25.2428L36.6218 29.7114L33.1619 26.2521C32.9787 26.0691 32.7303 25.9662 32.4713 25.9662C32.2123 25.9662 31.9639 26.0691 31.7807 26.2521L27.5352 30.497L29.1277 24.7758C29.5149 23.3849 29.2359 21.928 28.3625 20.7784C27.8275 20.0744 27.1212 19.5552 26.3227 19.2578L27.5957 15.6218C27.947 15.6526 28.2975 15.6683 28.6439 15.6683C31.4641 15.6683 34.2137 14.6745 36.3865 12.87L36.6192 12.6768C37.7647 11.7252 37.9605 10.0715 37.0651 8.91221C36.611 8.32427 35.9549 7.95555 35.2175 7.87411C34.4799 7.79257 33.7591 8.00896 33.1883 8.48305L32.924 8.70266C32.5345 9.02614 32.1097 9.30461 31.6577 9.53277C30.1517 10.2923 28.2711 9.95403 27.0215 8.7175C28.8392 8.15456 30.1634 6.458 30.1634 4.45796C30.1635 1.99985 28.1632 0 25.7046 0C23.2458 0 21.2457 1.99985 21.2457 4.45806C21.2457 5.4363 21.5632 6.34131 22.0994 7.0772C21.0947 7.29419 20.1793 7.81037 19.4737 8.55775C19.4321 8.59375 19.3935 8.63321 19.3586 8.67571C17.6368 10.7902 15.3415 12.3069 12.7208 13.0616C12.0113 13.2661 11.4497 13.7371 11.1127 14.3344L9.11095 12.3329C8.23509 11.4573 6.81015 11.4574 5.93419 12.3329L3.31452 14.9523L0.694844 17.5715C0.485568 17.7796 0.319655 18.0271 0.206713 18.2997C0.0937702 18.5723 0.036043 18.8646 0.0368741 19.1597C0.0360896 19.4547 0.0938284 19.747 0.206751 20.0196C0.319673 20.2922 0.485536 20.5397 0.694747 20.7478L7.91269 27.9646C8.12081 28.1738 8.36836 28.3396 8.64101 28.4525C8.91367 28.5654 9.20601 28.6231 9.50112 28.6223C10.1013 28.6223 10.6653 28.3887 11.0895 27.9646L13.802 25.2526L12.5158 28.6246C12.3236 29.1284 12.5764 29.6928 13.0804 29.8849C13.1914 29.9274 13.3093 29.9492 13.4282 29.9493C13.8216 29.9493 14.1925 29.7098 14.341 29.3205L17.5442 20.9226H24.7161C25.5442 20.9226 26.3063 21.3007 26.8072 21.9599C27.3081 22.6192 27.4681 23.4547 27.246 24.2522L25.0268 32.2248C24.9776 32.3998 24.8727 32.554 24.7279 32.664C24.5831 32.774 24.4064 32.8337 24.2245 32.8341C23.8903 32.8341 23.6843 32.6511 23.5912 32.5421C23.4981 32.433 23.3497 32.2007 23.4021 31.8708L24.583 24.4483C24.6052 24.3089 24.5969 24.1663 24.5586 24.0303C24.5203 23.8944 24.453 23.7684 24.3613 23.661C24.2696 23.5535 24.1557 23.4673 24.0275 23.4082C23.8992 23.349 23.7597 23.3184 23.6184 23.3184H21.303C21.1224 23.3184 20.9453 23.3685 20.7914 23.4631C20.6376 23.5576 20.5129 23.693 20.4314 23.8541C20.3744 23.9668 14.7077 35.1692 12.7982 38.9545C12.6071 39.3335 12.1915 39.5498 11.7654 39.4915L11.7191 39.4853C11.4283 39.446 11.1758 39.2788 11.0259 39.0266C10.876 38.7744 10.8501 38.4726 10.9547 38.1986L11.5565 36.6208C11.7487 36.117 11.4959 35.5528 10.992 35.3605C10.4881 35.1683 9.92372 35.4211 9.73141 35.9249L9.1296 37.5026C8.81131 38.3371 8.89042 39.2561 9.34661 40.024C9.80281 40.7918 10.5721 41.301 11.4566 41.4207L11.5029 41.4268C11.6368 41.4451 11.7702 41.4538 11.9027 41.4538C13.0085 41.4538 14.0369 40.8361 14.5423 39.834C16.2102 36.5276 20.7464 27.5589 21.9035 25.2714H22.4742L21.4731 31.564C21.4096 31.9618 21.4332 32.3687 21.5424 32.7565C21.6516 33.1443 21.8438 33.5037 22.1056 33.8099C22.4424 34.2045 22.8828 34.497 23.3772 34.6545L12.4976 45.5323C12.3145 45.7154 12.2117 45.9638 12.2117 46.2227C12.2117 46.4817 12.3145 46.7301 12.4976 46.9132L15.2989 49.714C15.4897 49.9046 15.7396 50 15.9895 50C16.2394 50 16.4894 49.9046 16.6801 49.714L22.0655 44.3295C22.4468 43.9482 22.4468 43.3299 22.0655 42.9485C21.684 42.5673 21.0658 42.5673 20.6842 42.9485L15.9895 47.6425L14.5695 46.2227L32.4715 28.3234L35.9314 31.7827C36.1146 31.9658 36.363 32.0686 36.622 32.0686C36.881 32.0686 37.1294 31.9658 37.3125 31.7827L43.163 25.9332C43.5444 25.5519 43.5444 24.9335 43.163 24.5521L42.6221 24.0114L47.8129 22.9669L46.7683 28.1568L45.9644 27.3531C45.5829 26.9719 44.9647 26.9719 44.5831 27.3531L36.6219 35.313L33.162 31.8537C32.7805 31.4725 32.1623 31.4725 31.7807 31.8537L26.2088 37.4247C25.8274 37.806 25.8274 38.4243 26.2088 38.8057C26.5903 39.187 27.2085 39.187 27.5901 38.8057L32.4713 33.9253L35.9312 37.3847C36.3127 37.7659 36.9309 37.7659 37.3125 37.3847L45.2737 29.4247L46.6756 30.8264C46.6424 30.9918 46.6526 31.1631 46.7052 31.3234C46.7579 31.4837 46.8512 31.6277 46.9761 31.7412C47.101 31.8547 47.2532 31.9339 47.4178 31.9711C47.5825 32.0083 47.7539 32.0022 47.9155 31.9534C48.0771 31.9046 48.2232 31.8147 48.3397 31.6926C48.4562 31.5705 48.539 31.4202 48.5802 31.2566C48.6213 31.0929 48.6193 30.9214 48.5743 30.7587C48.5294 30.596 48.443 30.4478 48.3237 30.3285L50.0177 21.9126C50.0494 21.7548 50.0417 21.5916 49.9951 21.4375C49.9485 21.2835 49.8646 21.1433 49.7508 21.0295ZM25.7046 1.95298C27.0861 1.95298 28.2101 3.07682 28.2101 4.45806C28.2101 5.8394 27.086 6.96324 25.7046 6.96324C24.323 6.96324 23.199 5.8394 23.199 4.45806C23.199 3.07682 24.323 1.95298 25.7046 1.95298ZM16.0404 19.2612L14.8518 18.0728C15.4153 17.8889 15.9699 17.6785 16.5136 17.4424L16.0404 19.2612ZM12.7443 15.874C12.6288 15.4734 12.861 15.0537 13.2616 14.9383C14.8503 14.4815 16.354 13.7692 17.7138 12.8294L17.1623 14.9494C16.0591 15.5587 14.8909 16.0423 13.6798 16.3911C13.6569 16.3977 13.6337 16.4032 13.6103 16.4077C13.4301 16.442 13.2498 16.4062 13.0984 16.3199L12.8124 16.0338C12.7835 15.9834 12.7606 15.9297 12.7443 15.874ZM7.31527 13.7139C7.37241 13.6568 7.44751 13.6283 7.52252 13.6283C7.59753 13.6283 7.67263 13.6568 7.72967 13.7139L11.2898 17.2734C11.4531 17.4969 11.65 17.6938 11.8736 17.8571L14.9477 20.9307C15.0026 20.9857 15.0334 21.0602 15.0334 21.1378C15.0334 21.2155 15.0026 21.29 14.9477 21.345L13.0186 23.2737L10.8732 21.1287L11.2818 20.7201C11.6632 20.3388 11.6632 19.7205 11.2818 19.3391L9.0834 17.141C8.70192 16.7598 8.0837 16.7598 7.70213 17.141L7.2935 17.5495L5.38619 15.6426L7.31527 13.7139ZM8.65211 20.5875C8.61812 20.6216 8.57771 20.6487 8.53321 20.6672C8.4887 20.6856 8.44099 20.6951 8.39281 20.695C8.33617 20.695 8.22708 20.6809 8.13361 20.5876L7.83485 20.2889C7.80076 20.2549 7.77371 20.2145 7.75528 20.17C7.73684 20.1255 7.72738 20.0779 7.72742 20.0297C7.72736 19.9816 7.73683 19.9339 7.75528 19.8894C7.77374 19.8449 7.80081 19.8045 7.83495 19.7705L8.39281 19.2127L9.20998 20.0297L8.65211 20.5875ZM9.70827 26.5836C9.68124 26.6111 9.64898 26.6328 9.61339 26.6475C9.57781 26.6622 9.53963 26.6697 9.50112 26.6694C9.4626 26.6697 9.42441 26.6622 9.38883 26.6475C9.35324 26.6327 9.32098 26.611 9.29397 26.5835L2.07603 19.3668C2.04857 19.3398 2.02682 19.3075 2.01207 19.2719C1.99732 19.2364 1.98988 19.1982 1.99018 19.1597C1.99018 19.1043 2.00502 19.0235 2.07603 18.9526L4.00501 17.0238L6.00363 19.022C5.85202 19.3363 5.77355 19.6808 5.77412 20.0297C5.7733 20.3345 5.83293 20.6363 5.94958 20.9179C6.06623 21.1994 6.23756 21.455 6.45367 21.6699L6.75233 21.9684V21.9685C6.96726 22.1846 7.22292 22.3559 7.50451 22.4725C7.7861 22.5892 8.08802 22.6488 8.39281 22.648C8.74773 22.648 9.09034 22.5685 9.40072 22.4185L11.6374 24.6549L9.70827 26.5836ZM23.659 18.9697H18.1346L20.141 11.258C20.4998 9.87923 21.7455 8.91631 23.1704 8.91631C24.0507 8.91631 24.8649 9.27117 25.4631 9.91555C27.2981 11.8924 30.2074 12.452 32.5376 11.2766C33.1212 10.9821 33.6696 10.6226 34.1723 10.205L34.4367 9.98537C34.5146 9.92004 34.6051 9.87127 34.7025 9.84206C34.7999 9.81284 34.9022 9.80379 35.0033 9.81546C35.1045 9.82637 35.2024 9.85775 35.2911 9.90769C35.3798 9.95763 35.4574 10.0251 35.5192 10.106C35.7647 10.4236 35.6981 10.9031 35.3712 11.1746L35.1385 11.3679C33.3157 12.8818 31.0092 13.7156 28.644 13.7156C28.1304 13.7156 27.6054 13.6744 27.0836 13.5933C26.858 13.558 26.6271 13.603 26.4313 13.7203C26.2354 13.8377 26.0869 14.02 26.0116 14.2355L24.354 18.9697H23.659Z" fill="url(#paint0_linear_654_2133)"/>
<defs>
<linearGradient id="paint0_linear_654_2133" x1="-3.35819" y1="-11.7284" x2="65.1603" y2="61.7284" gradientUnits="userSpaceOnUse">
<stop stop-color="#EB235F"/>
<stop offset="1" stop-color="#E8950D"/>
</linearGradient>
</defs>
</svg>
