<svg width="50" height="50" viewBox="0 0 50 50" fill="none" xmlns="http://www.w3.org/2000/svg">
<g clip-path="url(#clip0_654_1246)">
<path d="M39.7529 36.8174C39.5713 36.6357 39.3193 36.5312 39.0625 36.5312C38.8057 36.5312 38.5537 36.6356 38.3721 36.8174C38.1896 37.0009 38.0868 37.249 38.0859 37.5078C38.0859 37.7656 38.1904 38.0166 38.3721 38.1981C38.5537 38.3808 38.8057 38.4844 39.0625 38.4844C39.3193 38.4844 39.5713 38.3808 39.7529 38.1981C39.9346 38.0166 40.0391 37.7646 40.0391 37.5078C40.0391 37.251 39.9346 36.999 39.7529 36.8174Z" fill="url(#paint0_linear_654_1246)"/>
<path d="M46.0938 0H3.90625C1.75234 0 0 1.75234 0 3.90625V34.5784C0 36.7323 1.75234 38.4847 3.90625 38.4847H19.2383V43.3868C16.3738 43.6659 14.1276 46.087 14.1276 49.0234C14.1276 49.5627 14.5648 50 15.1042 50H34.8959C35.4353 50 35.8725 49.5627 35.8725 49.0234C35.8725 46.0206 33.5233 43.5574 30.5665 43.3719V38.4847H35.1238C35.6632 38.4847 36.1004 38.0474 36.1004 37.5081C36.1004 36.9688 35.6632 36.5315 35.1238 36.5315H3.90625C2.8293 36.5315 1.95312 35.6554 1.95312 34.5784V3.90625C1.95312 2.8293 2.8293 1.95312 3.90625 1.95312H46.0938C47.1707 1.95312 48.0469 2.8293 48.0469 3.90625V34.5784C48.0469 35.6554 47.1707 36.5315 46.0938 36.5315H42.6842C42.1448 36.5315 41.7076 36.9688 41.7076 37.5081C41.7076 38.0474 42.1448 38.4847 42.6842 38.4847H46.0938C48.2477 38.4847 50 36.7323 50 34.5784V3.90625C50 1.75234 48.2477 0 46.0938 0ZM21.1914 38.4847H28.6133V43.3594H21.1914V38.4847ZM30.2083 45.3125C31.9167 45.3125 33.3592 46.4729 33.789 48.0469H16.211C16.6407 46.4729 18.0832 45.3125 19.7916 45.3125H30.2083Z" fill="url(#paint1_linear_654_1246)"/>
<path d="M25.5927 33.6924C25.4092 33.51 25.1611 33.4072 24.9023 33.4063C24.6455 33.4063 24.3935 33.5107 24.2119 33.6924C24.0302 33.8741 23.9257 34.126 23.9257 34.3829C23.9257 34.6397 24.0302 34.8917 24.2119 35.0732C24.3935 35.2558 24.6455 35.3594 24.9023 35.3594C25.1591 35.3594 25.4111 35.2558 25.5927 35.0732C25.7744 34.8917 25.8789 34.6397 25.8789 34.3829C25.8789 34.126 25.7744 33.8741 25.5927 33.6924ZM24.2187 15.6644C24.1074 15.6006 23.9942 15.5403 23.8792 15.4835C23.8871 15.3563 23.8923 15.2284 23.8923 15.0992C23.8923 11.6758 21.1073 8.89087 17.684 8.89087C14.2607 8.89087 11.4756 11.6759 11.4756 15.0992C11.4756 15.2284 11.4809 15.3563 11.4887 15.4835C11.3738 15.5404 11.2606 15.6007 11.1494 15.6645C8.18472 17.3761 7.16528 21.1805 8.87691 24.1453C9.7061 25.5813 11.0449 26.6086 12.6466 27.0378C13.1739 27.1796 13.7176 27.2516 14.2636 27.252C15.3394 27.252 16.4011 26.9698 17.3577 26.4175C17.4685 26.353 17.5773 26.2852 17.684 26.2141C17.7907 26.2852 17.8996 26.3531 18.0104 26.4175C18.967 26.9699 20.0287 27.252 21.1044 27.252C21.6436 27.252 22.1867 27.181 22.7214 27.0378C24.3232 26.6085 25.6621 25.5813 26.4912 24.1452C28.2028 21.1805 27.1833 17.3761 24.2187 15.6644ZM17.684 10.844C19.9595 10.844 21.8234 12.6394 21.9338 14.8879C20.4461 14.6918 18.933 15.0447 17.6872 15.867C17.1267 15.4958 16.5097 15.2179 15.8603 15.0442C15.0565 14.8289 14.2348 14.7773 13.4342 14.8838C13.5468 12.6372 15.4099 10.844 17.684 10.844ZM18.1487 19.3286C17.996 19.3452 17.8412 19.3544 17.684 19.3544C17.5269 19.3544 17.3721 19.3453 17.2194 19.3286C17.2819 19.1865 17.352 19.0479 17.4294 18.9134C17.5076 18.7795 17.593 18.65 17.6852 18.5253C17.7766 18.6501 17.8612 18.7796 17.9387 18.9134C18.0161 19.0479 18.0862 19.1865 18.1487 19.3286ZM13.1522 25.1511C12.0542 24.857 11.1367 24.1529 10.5684 23.1685C9.43062 21.198 10.0536 18.6862 11.9457 17.4662C12.5197 18.8526 13.5819 19.9867 14.9168 20.6543C14.8756 21.3253 14.9434 21.9985 15.1177 22.6478C15.3331 23.4515 15.6993 24.189 16.1918 24.8292C15.2515 25.3118 14.1803 25.4267 13.1522 25.1511ZM15.7379 17.9369C15.6017 18.1737 15.4811 18.4192 15.3767 18.6717C14.6779 18.219 14.1263 17.5723 13.7895 16.8109C13.9413 16.7936 14.0939 16.7846 14.2466 16.7839C14.9246 16.7847 15.5927 16.9461 16.1962 17.2547C16.0287 17.4718 15.8756 17.6997 15.7379 17.9369ZM18.3637 22.1422C18.2273 22.6531 17.9968 23.134 17.684 23.5603C17.3712 23.134 17.1407 22.6531 17.0043 22.1422C16.9265 21.8511 16.8795 21.5526 16.8642 21.2516C17.1327 21.2873 17.4059 21.3075 17.684 21.3075C17.9621 21.3075 18.2354 21.2873 18.5039 21.2516C18.4886 21.5526 18.4416 21.8511 18.3637 22.1422ZM21.1216 16.7867C21.2734 16.7867 21.4255 16.7967 21.5775 16.8131C21.2406 17.5737 20.6894 18.2195 19.9913 18.6718C19.887 18.4192 19.7664 18.1737 19.6301 17.9369C19.4933 17.7007 19.3411 17.4737 19.1748 17.2573C19.7774 16.9489 20.4446 16.7876 21.1216 16.7867ZM24.7997 23.1686C24.2314 24.153 23.3137 24.8571 22.2159 25.1512C21.1875 25.4267 20.1167 25.3117 19.1762 24.8292C19.6689 24.189 20.035 23.4516 20.2503 22.6478C20.4246 21.9986 20.4925 21.3253 20.4512 20.6543C21.7862 19.9867 22.8484 18.8526 23.4224 17.4662C25.3145 18.6861 25.9375 21.198 24.7997 23.1686ZM41.2696 17.098H36.7481V16.9597C36.7481 16.4205 36.3109 15.9832 35.7715 15.9832C35.2322 15.9832 34.795 16.4205 34.795 16.9597V17.098H30.2734C29.734 17.098 29.2968 17.5353 29.2968 18.0746C29.2968 18.6138 29.734 19.0511 30.2734 19.0511H34.795V19.1895C34.795 19.7288 35.2322 20.1661 35.7715 20.1661C36.3109 20.1661 36.7481 19.7288 36.7481 19.1895V19.0511H41.2696C41.8089 19.0511 42.2461 18.6138 42.2461 18.0746C42.2461 17.5353 41.8089 17.098 41.2696 17.098ZM41.2697 10.848H32.7799V10.7097C32.7799 10.1705 32.3427 9.73315 31.8034 9.73315C31.264 9.73315 30.8268 10.1705 30.8268 10.7097V10.848H30.2734C29.734 10.848 29.2968 11.2853 29.2968 11.8246C29.2968 12.3638 29.734 12.8011 30.2734 12.8011H30.8268V12.9395C30.8268 13.4788 31.264 13.9161 31.8034 13.9161C32.3427 13.9161 32.7799 13.4788 32.7799 12.9395V12.8011H41.2697C41.809 12.8011 42.2462 12.3638 42.2462 11.8246C42.2462 11.2853 41.809 10.848 41.2697 10.848ZM41.2697 23.348H40.7163V23.2097C40.7163 22.6705 40.2791 22.2332 39.7397 22.2332C39.2003 22.2332 38.7631 22.6705 38.7631 23.2097V23.348H30.2734C29.734 23.348 29.2968 23.7853 29.2968 24.3246C29.2968 24.8638 29.734 25.3011 30.2734 25.3011H38.7631V25.4395C38.7631 25.9788 39.2003 26.4161 39.7397 26.4161C40.2791 26.4161 40.7163 25.9788 40.7163 25.4395V25.3011H41.2697C41.809 25.3011 42.2462 24.8638 42.2462 24.3246C42.2462 23.7853 41.809 23.348 41.2697 23.348Z" fill="url(#paint2_linear_654_1246)"/>
<path d="M45.1172 3.91431H4.88281C4.34346 3.91431 3.90625 4.35161 3.90625 4.89087V31.2581C3.90625 31.7973 4.34346 32.2346 4.88281 32.2346H45.1172C45.6565 32.2346 46.0938 31.7973 46.0938 31.2581V4.89087C46.0938 4.35161 45.6565 3.91431 45.1172 3.91431ZM44.1406 30.2815H5.85938V5.86743H44.1406V30.2815Z" fill="url(#paint3_linear_654_1246)"/>
</g>
<defs>
<linearGradient id="paint0_linear_654_1246" x1="37.9533" y1="36.0731" x2="40.6298" y2="38.9425" gradientUnits="userSpaceOnUse">
<stop stop-color="#EB235F"/>
<stop offset="1" stop-color="#E8950D"/>
</linearGradient>
<linearGradient id="paint1_linear_654_1246" x1="-3.39506" y1="-11.7284" x2="65.1235" y2="61.7284" gradientUnits="userSpaceOnUse">
<stop stop-color="#EB235F"/>
<stop offset="1" stop-color="#E8950D"/>
</linearGradient>
<linearGradient id="paint2_linear_654_1246" x1="5.72418" y1="2.68219" x2="40.2353" y2="50.4875" gradientUnits="userSpaceOnUse">
<stop stop-color="#EB235F"/>
<stop offset="1" stop-color="#E8950D"/>
</linearGradient>
<linearGradient id="paint3_linear_654_1246" x1="1.04167" y1="-2.72873" x2="36.0395" y2="53.1634" gradientUnits="userSpaceOnUse">
<stop stop-color="#EB235F"/>
<stop offset="1" stop-color="#E8950D"/>
</linearGradient>
<clipPath id="clip0_654_1246">
<rect width="50" height="50" fill="white"/>
</clipPath>
</defs>
</svg>
