<svg width="50" height="50" viewBox="0 0 50 50" fill="none" xmlns="http://www.w3.org/2000/svg">
<g clip-path="url(#clip0_654_1230)">
<path d="M43.174 7.29148C43.1119 7.29148 43.0495 7.28543 42.9873 7.27283C42.8643 7.2475 42.7472 7.19815 42.6424 7.12752C42.5903 7.09163 42.5415 7.05076 42.497 7.00545C42.3181 6.82215 42.2173 6.57431 42.2164 6.3157C42.2164 6.25125 42.2231 6.18787 42.2356 6.12459C42.2604 5.99907 42.3088 5.87963 42.378 5.77283C42.4127 5.71938 42.4525 5.66965 42.497 5.62439C42.541 5.57947 42.5905 5.53865 42.6425 5.5032C42.7472 5.43254 42.8643 5.38317 42.9873 5.35779C43.1109 5.33223 43.2382 5.33223 43.3617 5.35779C43.4227 5.37048 43.4822 5.38904 43.5405 5.41345C43.5982 5.43787 43.6535 5.46814 43.7055 5.5032C43.7578 5.53861 43.8066 5.57924 43.8511 5.62449C43.8948 5.66941 43.9352 5.71912 43.9707 5.77293C44.04 5.87967 44.0884 5.99904 44.1132 6.12449C44.1437 6.28201 44.1357 6.44477 44.0899 6.5984C44.0442 6.75202 43.962 6.89179 43.8507 7.00535C43.8064 7.05103 43.7576 7.09193 43.7051 7.12742C43.6009 7.19819 43.4841 7.24758 43.3614 7.27283C43.2997 7.28532 43.2369 7.29157 43.174 7.29148ZM6.54179 7.29148C6.47859 7.29148 6.41607 7.28543 6.35402 7.27283C6.23124 7.24764 6.11447 7.19824 6.01025 7.12742C5.95776 7.09193 5.90898 7.05103 5.8647 7.00535C5.81988 6.96023 5.77977 6.91048 5.74501 6.85691C5.71041 6.80384 5.68085 6.74753 5.65672 6.68875C5.63278 6.63045 5.61488 6.56863 5.60214 6.50613C5.59001 6.44315 5.58401 6.3791 5.58423 6.31492C5.58423 6.25125 5.58979 6.18797 5.60214 6.12449C5.61488 6.06199 5.63278 6.00017 5.65672 5.94187C5.68066 5.88308 5.71063 5.82664 5.74501 5.77293C5.81512 5.66606 5.90527 5.57439 6.01025 5.5032C6.11448 5.43241 6.23125 5.38305 6.35402 5.35789C6.47756 5.33233 6.60488 5.33233 6.72842 5.35789C6.7897 5.37039 6.85003 5.38914 6.90758 5.41355C6.96484 5.43797 7.02057 5.46804 7.07295 5.5032C7.12495 5.53933 7.17464 5.57937 7.21879 5.62449C7.26255 5.67029 7.30296 5.72019 7.33733 5.77293C7.3718 5.82664 7.40168 5.88308 7.42562 5.94187C7.44956 6.00017 7.46756 6.06199 7.47991 6.12449C7.49255 6.18797 7.49935 6.25125 7.49935 6.31492C7.49935 6.37937 7.49265 6.44275 7.47991 6.50603C7.46774 6.56861 7.44956 6.62981 7.42562 6.68875C7.40168 6.74754 7.3718 6.80398 7.33733 6.85701C7.30274 6.91038 7.26303 6.9601 7.21879 7.00545C7.17474 7.05115 7.12495 7.09119 7.07295 7.12752C7.02057 7.16258 6.96475 7.19266 6.90758 7.21707C6.84994 7.24148 6.7898 7.26023 6.72842 7.27273C6.66599 7.28543 6.60403 7.29148 6.54179 7.29148Z" fill="#333333"/>
<path d="M49.1981 39.0427L48.2959 38.1405C47.7782 37.6224 47.0895 37.3371 46.357 37.3371C45.8923 37.3371 45.4455 37.4519 45.0488 37.6679L41.2201 33.8394L42.3975 32.6622C43.4696 31.5899 43.4696 29.845 42.3975 28.7731L41.5066 27.882C40.9874 27.3625 40.2965 27.0763 39.562 27.0763C38.8271 27.0763 38.1366 27.3625 37.6174 27.882L36.805 28.6941L33.8085 25.4627L49.6779 11.0507C49.7811 10.957 49.863 10.8422 49.9182 10.7142C49.9733 10.5862 50.0004 10.4478 49.9977 10.3084L49.814 1.14016C49.809 0.887997 49.7066 0.647553 49.5283 0.469204C49.3499 0.290854 49.1094 0.18844 48.8573 0.183419L39.6894 0.000312965C39.4032 -0.00691361 39.1362 0.111348 38.947 0.319942L24.9956 15.6832L11.0531 0.320431C10.9593 0.21718 10.8445 0.135194 10.7164 0.0799795C10.5883 0.024765 10.4499 -0.00239881 10.3104 0.000312965L1.14253 0.183419C0.890315 0.188415 0.649821 0.290818 0.471442 0.46917C0.293064 0.647522 0.190645 0.88798 0.185648 1.14016L0.00251497 10.3084C-0.000276007 10.4479 0.0268575 10.5862 0.0820866 10.7143C0.137316 10.8423 0.219357 10.9571 0.32268 11.0507L16.1541 25.4199L13.1873 28.6865L12.3773 27.8766C11.8596 27.3586 11.1709 27.0732 10.438 27.0732C9.70544 27.0732 9.01686 27.3586 8.49872 27.8766L7.59673 28.7784C6.52772 29.8477 6.52772 31.5872 7.59673 32.656L8.77991 33.839L4.95121 37.6679C4.54985 37.4498 4.10016 37.3361 3.6434 37.3371C2.91047 37.3371 2.2218 37.6224 1.70365 38.1405L0.801757 39.0423C-0.267252 40.1116 -0.267252 41.8511 0.801757 42.9199L7.07829 49.1966C7.59643 49.7146 8.28511 50 9.01764 50C9.75057 50 10.4392 49.7146 10.957 49.1966L11.8593 48.2944C12.7368 47.4171 12.894 46.0877 12.3304 45.0481L16.1594 41.2189L17.3418 42.4015C17.8599 42.9195 18.5486 43.2049 19.2811 43.2049C20.014 43.2049 20.7027 42.9195 21.2205 42.4015L22.1227 41.4993C23.1914 40.4305 23.1914 38.6909 22.1227 37.6221L21.3121 36.811L24.9526 33.5049L28.6801 36.8186L27.8831 37.616C26.811 38.6883 26.811 40.4331 27.8831 41.5051L28.7738 42.3962C29.2932 42.9157 29.9837 43.2018 30.7185 43.2018C31.453 43.2018 32.144 42.9157 32.6632 42.3962L33.8401 41.2189L37.6692 45.0481C37.1057 46.0877 37.2629 47.4171 38.1408 48.2948L39.0423 49.1966C39.5604 49.7146 40.2491 50 40.982 50C41.7146 50 42.4032 49.7146 42.9213 49.1966L49.1978 42.9199C50.2673 41.8511 50.2673 40.1115 49.1982 39.0427H49.1981ZM35.4229 30.0761L33.4409 32.0583L30.1593 28.7765L32.3627 26.7757L35.4229 30.0761ZM1.96433 9.90326L2.12002 2.1175L9.90508 1.96184L23.6763 17.136L21.2219 19.8391L9.78221 8.39906C9.4011 8.01761 8.78265 8.01761 8.40114 8.39906C8.01954 8.78011 8.01954 9.39847 8.40114 9.77992L19.9072 21.2867L17.4674 23.9737L1.96433 9.90326ZM40.0946 1.96184L47.88 2.1175L48.0357 9.90326L19.9293 35.4287L17.9405 33.4396L41.5989 9.78002C41.9801 9.39857 41.9801 8.78021 41.5989 8.39876C41.2174 8.01771 40.599 8.01771 40.2175 8.39915L16.5589 32.0584L14.57 30.0693L40.0946 1.96184ZM10.4778 46.9136L9.57583 47.8157C9.50272 47.8893 9.41573 47.9476 9.31991 47.9872C9.22409 48.0269 9.12135 48.0472 9.01764 48.0469C8.91401 48.0472 8.81135 48.0269 8.71561 47.9872C8.61988 47.9475 8.53298 47.8892 8.45994 47.8157L2.18341 41.539C1.87584 41.2315 1.87584 40.731 2.18341 40.4232L3.0853 39.5214C3.15842 39.4478 3.24541 39.3895 3.34123 39.3499C3.43705 39.3102 3.53978 39.2899 3.64349 39.2902C3.85407 39.2902 4.05205 39.3722 4.2012 39.5214L4.3394 39.6591C4.3394 39.6595 4.33979 39.6598 4.34018 39.6598L10.3385 45.6589L10.3396 45.6597L10.4777 45.7981C10.7853 46.1056 10.7854 46.606 10.4778 46.9136ZM11.0291 43.5871L6.41188 38.9698L10.1611 35.2203L14.7784 39.838L11.0291 43.5871ZM20.7412 40.1183L19.8393 41.0206C19.7661 41.0941 19.6791 41.1523 19.5833 41.192C19.4875 41.2317 19.3848 41.252 19.2811 41.2517C19.1775 41.252 19.0748 41.2318 18.9791 41.1921C18.8833 41.1524 18.7964 41.0941 18.7234 41.0206L8.97799 31.2752C8.67052 30.9676 8.67052 30.4672 8.97799 30.1597L9.88027 29.2576C10.0291 29.1088 10.2275 29.0263 10.4381 29.0263C10.6487 29.0263 10.8471 29.1084 10.9963 29.2576L20.7412 39.003C21.0488 39.3104 21.0488 39.8109 20.7412 40.1183ZM26.4069 32.1842L28.7113 30.0911L32.0596 33.4396L30.0639 35.4354L26.4069 32.1842ZM31.282 41.0152C31.2082 41.0895 31.1204 41.1483 31.0237 41.1884C30.9269 41.2285 30.8232 41.2489 30.7185 41.2486C30.6138 41.2489 30.5102 41.2284 30.4135 41.1884C30.3169 41.1483 30.2291 41.0895 30.1554 41.0152L29.2646 40.1245C28.9536 39.8136 28.9536 39.3078 29.2646 38.9972L38.9985 29.2629C39.0723 29.1886 39.16 29.1298 39.2567 29.0897C39.3533 29.0496 39.457 29.0292 39.5616 29.0295C39.7745 29.0295 39.9748 29.1122 40.1252 29.2629L41.0159 30.1536C41.3269 30.4645 41.3269 30.97 41.0159 31.2808L31.282 41.0152ZM39.839 35.2203L43.5882 38.9698L38.9706 43.5871L35.2217 39.8381L39.839 35.2203ZM47.8168 41.539L41.5402 47.8157C41.4671 47.8893 41.3801 47.9476 41.2843 47.9872C41.1885 48.0269 41.0857 48.0472 40.982 48.0469C40.8784 48.0471 40.7757 48.0269 40.68 47.9872C40.5842 47.9475 40.4973 47.8892 40.4242 47.8157L39.5223 46.9139C39.2148 46.606 39.2148 46.1059 39.522 45.7981L39.6604 45.66C39.6604 45.6597 39.6608 45.6593 39.6611 45.6589L45.7984 39.5214C45.9476 39.3726 46.146 39.2902 46.3566 39.2902C46.5672 39.2902 46.7656 39.3722 46.9148 39.5214L47.8163 40.4235C48.1242 40.731 48.1243 41.2315 47.8168 41.539Z" fill="url(#paint0_linear_654_1230)"/>
</g>
<defs>
<linearGradient id="paint0_linear_654_1230" x1="-3.39506" y1="-11.7284" x2="65.1235" y2="61.7284" gradientUnits="userSpaceOnUse">
<stop stop-color="#EB235F"/>
<stop offset="1" stop-color="#E8950D"/>
</linearGradient>
<clipPath id="clip0_654_1230">
<rect width="50" height="50" fill="white"/>
</clipPath>
</defs>
</svg>
