<svg width="50" height="50" viewBox="0 0 50 50" fill="none" xmlns="http://www.w3.org/2000/svg">
<g clip-path="url(#clip0_654_1240)">
<path d="M48.3871 48.3744H50V50H48.3871V48.3744ZM0 48.3744H1.6129V50H0V48.3744ZM41.0692 37.266C40.2048 34.7774 38.1486 32.9502 35.6831 32.3406L31.9679 19.5037C31.147 16.6661 28.6768 14.6171 25.8066 14.2889V10.7468L38.4968 6.17897L24.1935 0V14.2887C23.7065 14.3447 23.2299 14.4472 22.7717 14.5983C21.3895 13.5419 19.5501 13.1629 17.8837 13.6212C17.3058 12.3486 16.377 11.2703 15.2079 10.5149C14.0389 9.75956 12.679 9.35896 11.2903 9.36091C7.288 9.36091 4.03226 12.6422 4.03226 16.6759C4.03226 16.97 4.05242 17.2625 4.087 17.5537C1.77591 17.9193 0 19.9342 0 22.3654C0 25.0549 2.17006 27.2421 4.83871 27.2421H15.7927L15.3226 28.8677C12.1176 28.8677 9.25252 31.0337 8.35554 34.1337L4.23387 48.3744H2.41935V50H46.7742V48.3744H44.9274L41.0692 37.266ZM25.8065 2.46618L34.084 6.0408L25.8065 9.02035V2.46618ZM27.0977 40.9619C27.5588 41.4667 28.1781 41.8722 29.0275 41.8722C30.7346 41.8722 31.5299 40.2709 32.1678 38.9843C32.7806 37.7472 33.2023 36.9956 33.8654 36.9956C34.5289 36.9956 34.9507 37.7472 35.5646 38.9843C36.2041 40.2709 36.9983 41.8723 38.7074 41.8723C39.5599 41.8723 40.18 41.4651 40.6427 40.9587L43.2176 48.3745H24.5242L27.0977 40.9619ZM39.5469 37.8024L39.9864 39.0688C39.513 39.9173 39.1507 40.2467 38.7074 40.2467C38.0434 40.2467 37.6217 39.4946 37.0082 38.2576C36.3695 36.971 35.5741 35.37 33.8654 35.37C32.1573 35.37 31.3622 36.971 30.7243 38.2576C30.1112 39.4946 29.6902 40.2467 29.0275 40.2467C28.5853 40.2467 28.2251 39.9189 27.7533 39.0732L28.1943 37.8024C29.0378 35.3755 31.3193 33.7445 33.871 33.7445C36.4227 33.7445 38.7041 35.3755 39.5469 37.8024ZM33.871 32.1188C30.6346 32.1188 27.7419 34.1873 26.672 37.2661L24.7768 42.7246L22.2904 34.1337C21.5485 31.5699 19.4596 29.6495 16.9469 29.0593L18.2113 24.6906C18.6806 25.2118 19.3032 25.6165 20.1566 25.6165C21.8636 25.6165 22.659 24.0152 23.2969 22.7285C23.9097 21.4915 24.3314 20.7399 24.9945 20.7399C25.658 20.7399 26.0797 21.4915 26.6936 22.7285C27.3332 24.0152 28.1273 25.6165 29.8364 25.6165C30.692 25.6165 31.3162 25.2085 31.7871 24.6866L33.9387 32.1219C33.9162 32.1211 33.8933 32.1188 33.871 32.1188ZM30.4196 19.9596L31.2 22.6563C30.6774 23.6302 30.3049 23.991 29.8364 23.991C29.1725 23.991 28.7507 23.2389 28.1372 22.0019C27.4985 20.7153 26.7031 19.1143 24.9945 19.1143C23.2863 19.1143 22.4912 20.7153 21.8533 22.0019C21.2402 23.2389 20.8193 23.991 20.1566 23.991C19.6895 23.991 19.3186 23.6318 18.7984 22.6619L19.5804 19.9596C20.279 17.547 22.5074 15.8632 25 15.8632C27.4926 15.8632 29.721 17.547 30.4196 19.9596ZM4.83871 25.6165C3.05968 25.6165 1.6129 24.1584 1.6129 22.3654C1.6129 20.5723 3.05968 19.1143 4.83871 19.1143C6.61774 19.1143 8.06452 20.5723 8.06452 22.3654H9.67742C9.67742 19.9814 7.96996 17.9951 5.72349 17.5741C5.67661 17.2779 5.64516 16.9783 5.64516 16.6759C5.64516 13.5395 8.17833 10.9865 11.2903 10.9865C13.7329 10.9865 15.8881 12.56 16.6508 14.9007L16.9284 15.7501L17.7411 15.3916C18.7984 14.9249 20.0136 14.9634 21.0438 15.4349C19.6234 16.3696 18.5275 17.7935 18.033 19.5036L16.2629 25.6165H4.83871ZM15.3226 30.4932C17.8152 30.4932 20.0435 32.1771 20.7421 34.5897L21.2088 36.2029C20.7606 36.8891 20.4396 36.9954 20.159 36.9954C19.4951 36.9954 19.0733 36.2434 18.4598 35.0064C17.8211 33.7198 17.0257 32.1188 15.317 32.1188C13.6089 32.1188 12.8138 33.7198 12.1759 35.0064C11.5628 36.2434 11.1418 36.9955 10.4791 36.9955C10.1999 36.9955 9.88065 36.8879 9.43478 36.2077L9.90302 34.5897C10.6016 32.1771 12.8299 30.4932 15.3226 30.4932ZM8.90403 38.0423C9.32026 38.3844 9.82984 38.621 10.4791 38.621C12.1862 38.621 12.9816 37.0196 13.6195 35.7329C14.2323 34.4959 14.6539 33.7443 15.317 33.7443C15.9805 33.7443 16.4023 34.4959 17.0162 35.7329C17.6557 37.0196 18.4499 38.621 20.159 38.621C20.8193 38.621 21.334 38.3634 21.7387 38.0332L23.8604 45.3637L22.8145 48.3743H5.91371L8.90403 38.0423Z" fill="url(#paint0_linear_654_1240)"/>
</g>
<defs>
<linearGradient id="paint0_linear_654_1240" x1="-3.39506" y1="-11.7284" x2="65.1235" y2="61.7284" gradientUnits="userSpaceOnUse">
<stop stop-color="#EB235F"/>
<stop offset="1" stop-color="#E8950D"/>
</linearGradient>
<clipPath id="clip0_654_1240">
<rect width="50" height="50" fill="white"/>
</clipPath>
</defs>
</svg>
