<svg width="57" height="60" viewBox="0 0 57 60" fill="none" xmlns="http://www.w3.org/2000/svg">
<path fill-rule="evenodd" clip-rule="evenodd" d="M13.5 18.8818C17.876 18.8818 21.5 15.2573 21.5 10.6909C21.5 6.12454 17.876 2.5 13.5 2.5C9.124 2.5 5.5 6.12454 5.5 10.6909C5.5 15.2573 9.124 18.8818 13.5 18.8818ZM24 10.6909C24 16.3387 19.6988 20.9636 14.2497 21.355L14.25 21.3818L14.25 35.1273L14.2497 35.1541C19.6988 35.5455 24 40.1704 24 45.8182C24 51.7226 19.299 56.5091 13.5 56.5091C7.70101 56.5091 3 51.7226 3 45.8182C3 40.5178 6.78831 36.1184 11.7585 35.2736C11.7529 35.2256 11.75 35.1768 11.75 35.1273L11.75 21.3818C11.75 21.3323 11.7529 21.2835 11.7585 21.2354C6.78831 20.3907 3 15.9913 3 10.6909C3 4.78648 7.70101 0 13.5 0C19.299 0 24 4.78648 24 10.6909ZM13.5 54.0091C17.876 54.0091 21.5 50.3845 21.5 45.8182C21.5 41.2518 17.876 37.6273 13.5 37.6273C9.124 37.6273 5.5 41.2518 5.5 45.8182C5.5 50.3845 9.124 54.0091 13.5 54.0091ZM38.5 45.8182C38.5 50.3845 42.124 54.0091 46.5 54.0091C50.876 54.0091 54.5 50.3845 54.5 45.8182C54.5 41.2518 50.876 37.6273 46.5 37.6273C42.124 37.6273 38.5 41.2518 38.5 45.8182ZM36 45.8182C36 51.7226 40.701 56.5091 46.5 56.5091C52.299 56.5091 57 51.7226 57 45.8182C57 40.3444 52.9598 35.8315 47.75 35.2022V16.6909C47.75 12.6869 44.5041 9.44092 40.5 9.44092H37.5H34.4795L37.5757 6.28839C38.0595 5.79585 38.0595 4.9973 37.5757 4.50477C37.092 4.01223 36.3077 4.01223 35.824 4.50477L30.6242 9.79911C30.1404 10.2916 30.1404 11.0902 30.6242 11.5827L35.9244 16.9793C36.4081 17.4718 37.1924 17.4718 37.6762 16.9793C38.1599 16.4868 38.1599 15.6882 37.6762 15.1957L34.4795 11.9409H37.5H40.5C43.1234 11.9409 45.25 14.0676 45.25 16.6909V35.2022C40.0402 35.8315 36 40.3444 36 45.8182Z" fill="white"/>
</svg>
