<svg width="56" height="60" viewBox="0 0 56 60" fill="none" xmlns="http://www.w3.org/2000/svg">
<path fill-rule="evenodd" clip-rule="evenodd" d="M27.896 3.24409C19.9137 3.24409 13.455 9.7235 13.455 17.6851C13.455 25.4156 19.5118 31.7237 27.1305 32.1047C27.7495 32.1356 28.2261 32.6624 28.1952 33.2814C28.1642 33.9003 27.6374 34.3769 27.0185 34.346C18.207 33.9054 11.2109 26.613 11.2109 17.6851C11.2109 8.48627 18.6722 1 27.896 1C37.1187 1 44.5811 8.46237 44.5811 17.6851C44.5811 25.3 39.4801 31.7142 32.5119 33.727L32.5513 45.4528H33.0533C34.7324 45.4528 35.7345 47.2581 34.9499 48.6889L34.9376 48.7108L30.1911 56.9258L30.1817 56.9418C29.3487 58.3301 27.2746 58.3819 26.4431 56.9222L26.4406 56.9177L21.7026 48.7175C20.8439 47.271 21.9111 45.4528 23.5831 45.4528H23.8987V39.5236C23.8987 38.9039 24.401 38.4015 25.0207 38.4015C25.6404 38.4015 26.1428 38.9039 26.1428 39.5236V46.5749C26.1428 47.1945 25.6404 47.6969 25.0207 47.6969H23.7047L28.3182 55.6817L32.9316 47.6969H31.4331C30.8149 47.6969 30.3131 47.1968 30.311 46.5786L30.2654 33.0237L30.2654 33.0199V32.8602C30.2654 32.3378 30.6259 31.8845 31.1349 31.767C37.5531 30.2842 42.337 24.5432 42.337 17.6851C42.337 9.70175 35.8794 3.24409 27.896 3.24409ZM18.8858 17.6851C18.8858 12.7139 22.9246 8.67517 27.8957 8.67517C32.8668 8.67517 36.9056 12.7139 36.9056 17.6851C36.9056 18.053 36.8853 18.3971 36.8448 18.7406C36.7724 19.356 37.2127 19.9137 37.8281 19.9861C38.4436 20.0585 39.0012 19.6183 39.0736 19.0028C39.1244 18.5704 39.1497 18.1387 39.1497 17.6851C39.1497 11.4746 34.1062 6.43108 27.8957 6.43108C21.6852 6.43108 16.6417 11.4746 16.6417 17.6851C16.6417 23.8956 21.6852 28.9391 27.8957 28.9391C31.9042 28.9391 35.4259 26.8321 37.4244 23.67C37.7555 23.1461 37.5992 22.4531 37.0754 22.122C36.5515 21.791 35.8585 21.9472 35.5274 22.4711C33.9204 25.0139 31.0982 26.695 27.8957 26.695C22.9246 26.695 18.8858 22.6562 18.8858 17.6851ZM6.78839 23.0667C7.40808 23.0667 7.91043 23.569 7.91043 24.1887V41.0069C7.91043 41.6265 7.40808 42.1289 6.78839 42.1289H5.28981L9.90328 50.1137L14.5167 42.1289H13.2007C12.581 42.1289 12.0787 41.6265 12.0787 41.0069V34.412C12.0787 33.7923 12.581 33.2899 13.2007 33.2899C13.8204 33.2899 14.3228 33.7923 14.3228 34.412V39.8848H14.6384C16.3104 39.8848 17.3775 41.703 16.5188 43.1495L11.7781 51.3545C10.9465 52.8139 8.87267 52.762 8.03975 51.3738L8.03036 51.3578L3.28385 43.1427L3.27157 43.1209C2.48693 41.6901 3.48906 39.8848 5.16819 39.8848H5.66634V24.1887C5.66634 23.569 6.1687 23.0667 6.78839 23.0667ZM49.0511 23.2036C49.6708 23.2036 50.1732 23.7059 50.1732 24.3256V39.862H50.6713C52.3504 39.862 53.3526 41.6673 52.5679 43.0981L52.5556 43.1199L47.8091 51.335L47.7997 51.351C46.9668 52.7392 44.8929 52.791 44.0613 51.3316L39.3207 43.1266C38.462 41.6802 39.5291 39.862 41.2011 39.862H41.5167V33.6133C41.5167 32.9936 42.0191 32.4912 42.6388 32.4912C43.2585 32.4912 43.7608 32.9936 43.7608 33.6133V40.984C43.7608 41.6037 43.2585 42.1061 42.6388 42.1061H41.3228L45.9362 50.0909L50.5497 42.1061H49.0511C48.4314 42.1061 47.9291 41.6037 47.9291 40.984V24.3256C47.9291 23.7059 48.4314 23.2036 49.0511 23.2036ZM26.1624 11.9078C25.5427 11.9078 25.0404 12.4102 25.0404 13.0299V17.4074H24.5648C23.9451 17.4074 23.4427 17.9098 23.4427 18.5294C23.4427 19.1491 23.9451 19.6515 24.5648 19.6515H25.0401V20.7795H24.635C24.0153 20.7795 23.5129 21.2818 23.5129 21.9015C23.5129 22.5212 24.0153 23.0236 24.635 23.0236H25.0401V23.3672C25.0401 23.9869 25.5425 24.4893 26.1622 24.4893C26.7819 24.4893 27.2842 23.9869 27.2842 23.3672V23.0236H27.9438C28.5635 23.0236 29.0659 22.5212 29.0659 21.9015C29.0659 21.2818 28.5635 20.7795 27.9438 20.7795H27.2842V19.6515H29.9505C32.0823 19.6515 33.8109 17.9108 33.8109 15.7682C33.8109 13.6425 32.0763 11.9078 29.9505 11.9078H26.1624ZM27.2845 17.4074V14.1519H29.9505C30.8369 14.1519 31.5668 14.8818 31.5668 15.7682C31.5668 16.6835 30.8308 17.4074 29.9505 17.4074H27.2845Z" fill="white"/>
</svg>
